<svg xmlns="http://www.w3.org/2000/svg" width="64" height="59" viewBox="0 0 64 59">
    <g fill="none" fill-rule="evenodd" stroke="#FFF">
        <path fill="#FFF" d="M46.92 48.13l-2.994-3.182h2.993v3.182zm12.972-27.11l-.004-3.411c-.001-1.652-.315-3.082-.96-4.37-1.88-3.762-4.95-5.78-9.123-5.996-.954-.05-1.924-.04-2.863-.03l-.713.006c-.684.004-1.117.37-1.132.955-.016.595.42.983 1.135 1.014.114.005.227.004.34.003h.199c.338.004.676.006 1.015.006.729.003 1.483.005 2.22.042 4.281.218 7.798 3.8 7.84 7.984.066 6.556.063 12.344-.009 17.696-.037 2.8-1.352 5.061-3.907 6.722-1.345.875-2.957 1.3-4.927 1.3h-.008c-8.161-.005-16.323-.004-24.484-.002h-3.795c-.241.001-.495 0-.746.037-.502.073-.816.434-.82.943-.005.51.303.877.803.957.246.04.493.04.731.04h2.658c5.649.002 11.49.004 17.234-.01h.006c.437 0 .706.119.958.424.3.362.631.705.951 1.036l.389.406 1.026 1.087c.781.826 1.59 1.681 2.374 2.53.377.407.787.611 1.225.611.175 0 .354-.033.537-.097.639-.227.944-.738.932-1.563a80.72 80.72 0 0 1-.003-1.45l.002-2.913c.248-.024.492-.043.731-.062.65-.052 1.265-.1 1.872-.231 4.948-1.063 8.287-5.147 8.309-10.161.02-4.501.013-9.077.007-13.502zM16.77 42.998c-.29-.013-.58-.02-.87-.025-.312-.007-.634-.013-.948-.03-4.291-.232-7.823-3.8-7.873-7.952a671.7 671.7 0 0 1 .008-17.982c.04-2.77 1.35-5.019 3.895-6.684 1.383-.906 2.99-1.328 5.058-1.328h.013c7.402.007 14.804.005 22.205.004h4.312c.203 0 .414 0 .627-.04.51-.092.81-.454.803-.967-.007-.508-.323-.872-.826-.949a4.823 4.823 0 0 0-.728-.036c-3.81-.002-7.619-.001-11.428-.001l-2.286-.005-3.308-.001c-3.094-.003-6.294-.005-9.442.011-.723.004-1.672.033-2.597.23-4.973 1.058-8.334 5.149-8.364 10.18-.034 5.623-.02 11.318-.003 17.143.009 2.623.889 4.935 2.617 6.872C9.769 43.83 12.495 45 15.947 45c.279 0 .563-.008.851-.023.627-.033 1.058-.447 1.049-1.007-.01-.55-.443-.941-1.077-.972"/>
        <circle cx="22" cy="26" r="2" fill="#D8D8D8"/>
        <circle cx="33" cy="26" r="2" fill="#D8D8D8"/>
        <circle cx="43" cy="26" r="2" fill="#D8D8D8"/>
    </g>
</svg>
