<?xml version="1.0" encoding="utf-8"?>
<!-- Generator: Adobe Illustrator 22.0.1, SVG Export Plug-In . SVG Version: 6.00 Build 0)  -->
<svg version="1.1" id="Layer_1" xmlns="http://www.w3.org/2000/svg" xmlns:xlink="http://www.w3.org/1999/xlink" x="0px" y="0px"
	 viewBox="0 0 1920 1080" style="enable-background:new 0 0 1920 1080;" xml:space="preserve">
<style type="text/css">
	.st0{fill:#475B74;}
	.st1{fill:#465A74;}
	.st2{fill:#465A73;}
	.st3{fill:#455973;}
	.st4{fill:#475B75;}
	.st5{fill:#485C75;}
	.st6{fill:#445972;}
	.st7{fill:#445872;}
	.st8{fill:#435872;}
	.st9{fill:#495D76;}
	.st10{fill:#4B5E77;}
	.st11{fill:#4D6079;}
	.st12{fill:#4E6179;}
	.st13{fill:#4C5F78;}
	.st14{fill:#5C6E85;}
	.st15{fill:#68788D;}
</style>
<g>
	<g>
		<path class="st0" d="M993.7,0.1c10.7,30.3,19.7,61.4,32.6,90.8c24.5,56,69.4,91.5,123.9,116.1c34.9,15.7,70.4,30.2,104.9,46.7
			c50,23.9,83.9,63.1,101.7,115.5c11.8,34.5,22.4,69.4,33.4,104.1c24,75.9,73,128.7,146.3,159.5c34.2,14.4,68.4,28.8,101.8,44.9
			c38.4,18.4,69.9,45.6,87.8,84.9c12.8,28.1,21.7,58,32.3,87.1c11.2,30.8,20.3,62.5,33.7,92.3c24.5,54.4,68.8,88.9,122.3,112.7
			c6,2.6,9,5.7,6.3,13.2c-29.5-12.4-58.1-26.2-83.1-46.5c-35.9-29.1-54.7-68.6-68.3-111.2c-11.1-34.7-21.5-69.6-33.5-104.1
			c-24-69.4-74.1-113.6-140.1-142c-31-13.3-62-26.7-92.6-41.1c-55.2-26-91-69.2-109.6-126.9c-10.9-33.8-21.6-67.7-32.4-101.5
			c-23.5-73.5-72.4-123.5-142.5-153.9c-32.6-14.2-65.4-27.9-97.7-42.9c-58.8-27.3-94.2-74.5-112.7-135.5
			c-6.3-20.6-12.1-41.3-18.2-62C991.3,0.1,992.5,0.1,993.7,0.1z"/>
		<path class="st1" d="M1034.1,0.1c4.3,12,8.6,24,12.9,36c22.6,62.9,64.4,108.4,124.9,136.6c29.7,13.8,59.7,27.3,90.2,39.4
			c72.3,28.7,116.4,81.3,137,155.6c8.8,31.8,19.1,63.4,30.3,94.5c23.5,65.3,69.1,110.2,132,138c33.9,15,68.2,29.2,101.9,44.6
			c51.5,23.5,88.3,61.6,107.5,115.1c11.7,32.6,21,65.9,31.6,98.9c11.5,35.8,26.2,70.1,50.6,99.4c17.2,20.7,37.9,37,60.9,50.6
			c8,4.7,8,4.7,7.2,14.9c-2.3-0.9-4.5-1.5-6.4-2.4c-54.1-26-89.6-68.4-108.2-125c-12.3-37.2-23.6-74.7-35.6-111.9
			c-24.1-74.7-76.8-121.6-147.3-151.3c-23-9.7-45.6-20.2-68.7-29.5c-69.5-28.1-113.7-78.4-134.2-150.3
			c-8.6-30.1-18.3-59.8-28.1-89.6c-24.1-73.3-73.5-122.8-143.8-152.7c-29.9-12.7-59.7-25.8-89.4-39
			c-60.3-26.8-98.6-72.9-118.1-135.3c-3.8-12.1-7.3-24.3-10.9-36.5C1031.6,0.1,1032.9,0.1,1034.1,0.1z"/>
		<path class="st2" d="M1076.3,0.1c10.4,27.4,22.9,53.7,41.2,76.9c27.8,35.3,64.8,57.6,105.1,75.5c26.7,11.8,53.5,23.3,80.4,34.7
			c62.8,26.7,103.8,72.8,123.8,138c9.7,31.7,19.5,63.3,29.7,94.8c23.9,73.5,72.3,124.3,143.2,154.2c27.4,11.6,54.7,23.6,82.2,35
			c66.7,27.5,109.3,76.2,129.9,145.1c10.9,36.3,22,72.6,35,108.2c14.2,39.1,37.8,72.2,70.5,98.5c3.6,2.9,4.2,9.5,6.2,14.4
			c-1.2,0.9-2.5,1.9-3.7,2.8c-11.9-10.4-24.6-20.1-35.6-31.4c-25.6-26.5-39.6-59.6-50.6-94c-10.2-32.1-19.2-64.6-29.9-96.6
			c-23.4-69.7-70.7-117.5-137.4-146.8c-28.1-12.4-56.1-25-84.4-36.9c-65.9-27.7-107.8-76.2-128-144.5c-9.6-32.6-20.1-65-31-97.2
			c-22.7-66.9-67.2-114.2-131.2-143.3c-29.9-13.6-59.9-26.8-90.2-39.4c-67.7-28.1-110.6-77.7-130.5-147.9
			C1072.6,0.1,1074.4,0.1,1076.3,0.1z"/>
		<path class="st2" d="M1120.3,0.1c29.9,66.5,85,103.6,149.7,130.4c33.1,13.7,66.1,28.1,97.5,45.1c49.2,26.6,75.8,71.6,92.3,123.4
			c10.2,32.1,20.3,64.3,30.8,96.3c22.5,68.6,67.7,116.6,133.3,145.9c29.1,13,58.4,25.9,88,37.9c68.6,27.8,111.9,77.6,132.8,148.2
			c10.5,35.5,21.7,70.8,34,105.7c9.1,25.7,23.1,48.9,40.6,70c3.5,4.2,2.3,12.2,2.3,18.7c-17.4-15.1-30.6-33.2-38.4-53.9
			c-12.7-33.4-24.2-67.4-34.5-101.7c-17-56.2-38.8-109.1-86.5-147.2c-29.6-23.6-63.8-38.9-98.2-53.8c-20.1-8.6-40.2-17.2-60.1-26.4
			c-57.9-26.6-95.8-70.8-115-131.3c-10.6-33.6-21-67.2-32-100.7c-24.4-74.7-75-124.4-146.6-154.7c-34.4-14.6-68.8-29.4-102.3-46
			c-42-20.8-72.1-53.6-90.7-96.7c-1.3-2.9-1.6-6.2-2.4-9.3C1116.6,0.1,1118.4,0.1,1120.3,0.1z"/>
		<path class="st2" d="M1169.8,0.1c9.3,12.2,17.7,25.3,28.2,36.5c27.5,29.2,62.9,46.6,99,62.5c26.7,11.7,53.7,22.9,80.2,35
			c55.9,25.5,92.5,68.3,111.5,126.4c11.5,35.2,22,70.7,33.8,105.9c23.8,71,71.5,119.9,140,149.1c28.8,12.3,57.5,24.8,86.3,37
			c63.4,26.9,105.2,73.2,125.5,139c11.2,36.3,22.8,72.4,34.7,108.5c2.7,8.2,9,15.3,11.3,23.6c2.2,8.1,1.4,17,1.9,25.5
			c-1.2,0.3-2.3,0.6-3.5,0.9c-7.5-19.7-15.7-39.1-22.4-59.1c-10.6-31.9-19.4-64.5-30.4-96.3c-22.7-66-67.8-111.8-130.8-140.3
			c-30.7-13.9-61.7-27.3-92.6-40.8c-61.9-26.9-102.6-72.6-122.6-137c-9.9-31.9-20.1-63.7-30.2-95.6
			c-24.4-76.6-75.8-127.3-149.1-158.1c-35.3-14.8-70.3-30.4-104.6-47.5c-30.2-15.1-54.5-37.8-72.2-67c-1.5-2.4-2.1-5.3-3.1-8
			C1163.7,0.1,1166.7,0.1,1169.8,0.1z"/>
		<path class="st3" d="M1223,0.1c24.5,28.3,55.8,46.9,89.3,62.2c27.9,12.7,56.1,24.9,84.5,36.6c67.3,27.8,108.9,77.6,129.1,146.9
			c9.9,33.8,20.8,67.3,32.5,100.5c23,65.3,68.6,109.7,131,137.6c31.9,14.3,64.1,27.9,96.1,41.8c60.2,26,99.2,70.9,119.7,132.8
			c4.6,13.9,10.8,27.4,16.2,41c0.4,1.1,0.2,2.4,0.2,3.6c0,10.1,0,20.1-1.5,30.6c-2-6.4-4-12.8-5.9-19.3
			c-10.3-34.8-21.8-69-41.1-100.1c-26-42-64-69.7-108-89.9c-27.9-12.8-56.1-25.1-84.4-36.9c-69.3-28.7-112.4-79.9-133.1-151.6
			c-10.3-35.5-21.8-70.8-34.7-105.5c-21.6-58-62.5-99-117.8-125.5c-36.2-17.3-73.4-32.6-109.9-49.3c-23.7-10.9-45.3-25.1-63.9-43.6
			c-3.6-3.5-6.3-8-9.3-12C1215.6,0.1,1219.3,0.1,1223,0.1z"/>
		<path class="st2" d="M1.7,431.1c15.6,7.3,31.2,14.9,47,21.9c25.5,11.4,51.3,22.2,76.8,33.7c58.4,26.3,97,70.3,116.5,131.1
			c10.7,33.5,21.4,67.1,31.8,100.7c23.8,76.8,74.9,127.8,148.3,158.3c29.2,12.1,58,25.1,86.8,38.1c55.1,25,92.5,66.2,112.3,123.4
			c4.7,13.5,9.1,27,13.7,40.5c-0.9,0.6-1.7,1.2-2.6,1.8c-1.8-2.3-4.1-4.4-5.2-7c-8-19-14.5-38.7-23.7-57.2
			c-22-44.2-56.9-76.1-100.8-97.4c-34.1-16.6-69.5-30.8-104.1-46.4c-35.4-16-67.8-36.1-91.7-67.8c-20.1-26.8-30.6-57.9-40.8-89.1
			c-9.8-29.7-18.2-59.8-28.6-89.3c-23.6-67.5-70.2-113.6-135.1-142.1c-32-14.1-64.1-27.9-96.2-41.7c-1.3-0.6-3-0.5-4.5-0.7
			C1.7,438.4,1.7,434.7,1.7,431.1z"/>
		<path class="st2" d="M47.5,0.1c7.4,23.4,14.2,47,22.2,70.2c10.8,31.2,20.7,63,34.4,92.9c21.4,46.6,58.5,79.1,104.2,101.3
			c32,15.5,64.8,29.2,97.3,43.7c38.9,17.4,74.2,39.5,98.7,75.7c19.1,28.3,29.7,60.2,39.8,92.5c9.3,29.9,18.1,59.9,29.3,89.1
			c23.8,62.2,69,104.2,128.9,131.5c7.7,3.5,15.3,7.3,22.9,11c-0.1,0.8-0.1,1.7-0.2,2.5c-41.7-16.1-82.1-34.3-113.4-67.7
			c-23.2-24.8-37-54.9-47.6-86.5c-11.6-34.8-21.7-70.2-33.9-104.8c-23.8-67.4-70.9-113.1-135.9-141.2c-27.1-11.7-54-23.8-81.4-34.7
			C141.5,247.2,98,195.2,76.5,122.3C64.3,81.1,48.7,40.8,34.7,0.1C38.9,0.1,43.2,0.1,47.5,0.1z"/>
		<path class="st3" d="M1289,0.1c3.6,3,7,6.4,10.9,9c33.6,21.9,71.5,34.9,107.7,51.6c24.8,11.4,49.5,23.6,72.3,38.4
			c37.7,24.4,59,61.8,73.1,103.3c10.4,30.7,20.2,61.7,29.4,92.9c23.9,81.2,76.8,135.1,154.3,166.8c34.3,14,68.3,29,101.5,45.4
			c33.6,16.6,59.1,42.3,78.4,74.6c6,10.1,4.2,19.5,5.2,31.6c-2.1-2.8-3.2-4-3.9-5.3c-23.8-49.3-61.7-84.3-110.6-107.6
			c-31.8-15.1-64.4-28.6-96.5-43.2c-28.4-13-55.2-28.5-77.3-51.2c-26.6-27.4-41.3-61.3-53-96.8c-11.8-36-22.1-72.6-35.6-108
			c-24.5-64.4-72.4-106.3-134.4-133.6c-34.8-15.3-69.6-30.4-104-46.6c-11.6-5.5-21.6-14.1-32.3-21.3C1279.2,0.1,1284.1,0.1,1289,0.1
			z"/>
		<path class="st0" d="M646.6,677.1c-49.5-19.5-95.3-43.9-124.2-91.5c-18.3-30.2-27.9-63.8-38.7-97c-9.9-30.3-19.4-60.9-32.1-90
			c-23.7-54.3-66.2-90.3-119.2-114.4c-29.3-13.3-59-26-88.8-38.3c-66.1-27.1-110.4-73.9-131.4-142.6C102.1,70,91,36.9,80.4,3.6
			c-0.3-1,0.1-2.3,0.1-3.5c3.1,0,6.1,0,9.2,0c12.4,38.7,23.2,78,37.7,115.8c21.8,56.7,63.1,96.3,117.6,122.1
			c31.5,15,63.6,29,95.7,42.5c66.2,27.9,108.2,76.6,128.6,145.2c10.8,36.3,22,72.6,35.1,108.2c21.5,58.4,61.9,100.5,117.5,128.1
			c9,4.5,18,8.8,27,13.2C648.1,675.9,647.4,676.5,646.6,677.1z"/>
		<path class="st3" d="M1369.7,0.1c16.2,7.4,32.5,14.6,48.6,22.2c28.3,13.4,57.4,25.4,84.3,41.2c43.5,25.4,68.2,66.1,83.6,112.8
			c10.4,31.7,20.1,63.6,30.1,95.5c24.1,76.9,74.7,128.7,148.5,159.5c34.8,14.5,69.4,29.5,103.2,46.1c15.7,7.7,29.2,19.7,43.8,29.6
			c9.3,6.4,12.4,14.8,9.3,25.1c-13-11.5-25.5-23.9-39.5-34.5c-31.6-24-68.5-37.9-104.4-53.8c-25-11.1-50-22.4-73.6-36.1
			c-46-26.6-72-69-88.1-118.2c-11.4-34.9-21.7-70.2-33.7-104.9c-24.7-71.7-75.3-118.5-144-147.5c-25.7-10.9-51.3-22.1-77-33.2
			c-2.1-0.9-3.9-2.5-5.8-3.8C1359.9,0.1,1364.8,0.1,1369.7,0.1z"/>
		<path class="st1" d="M681.8,649.4c-45-17.5-87.6-38.6-117.6-78.6c-21.6-28.7-32.6-62.2-43.7-95.8c-11.7-35.4-22.5-71.3-37.1-105.5
			c-23.8-55.8-68.2-91.6-122.5-116c-31.9-14.3-64.1-27.8-96.1-41.8c-59.7-26.1-98.8-70.6-118.6-132.5C138.4,54.6,130.6,30,123,5.4
			c-0.5-1.6-0.2-3.5-0.3-5.2c3.1,0,6.1,0,9.2,0c2.4,10.1,4.5,20.3,7.4,30.2c10.2,35.1,22.6,69.4,43.2,100.1
			c26,38.8,62.7,64.4,104.2,83.6c27.9,12.9,56.1,25.1,84.4,36.9c66.1,27.6,109.2,75.5,129.7,144.2c10,33.8,20.4,67.5,31.8,100.8
			c24.1,70,72.5,117.1,139.7,146.2c3.9,1.7,7.7,3.7,11.6,5.5C683.1,648.3,682.5,648.8,681.8,649.4z"/>
		<path class="st0" d="M170.4,0.1c8.8,23.6,16.4,47.7,26.7,70.6c24,53,65.7,88.5,117.6,112.5c27.8,12.9,55.9,25.4,84.3,37
			c69.2,28.2,114.2,77.6,134.8,149.6c9.2,32.1,19.3,63.9,30,95.5c22.2,65.1,64.9,112.1,126.9,141.7c1.4,0.7,2.6,1.5,4,2.2
			c-0.7,0.6-1.5,1.2-2.2,1.8c-66.6-25.6-110.6-72.2-131.8-140.6c-9.9-32.2-20.4-64.2-30.8-96.2c-22.7-70.2-68.6-119.5-135.8-149.2
			c-30.6-13.5-61.3-26.8-92.1-39.7c-66.5-27.8-107.6-77.7-127.7-146c-3.9-13.1-7.6-26.2-11.3-39.3C165.5,0.1,167.9,0.1,170.4,0.1z"
			/>
		<path class="st3" d="M1468.7,0.1c15.8,7.6,31.7,15.1,47.4,23c57,28.6,88.5,77.1,106.6,136.3c11.1,36.3,22,72.7,35.5,108.1
			c24.2,63.9,71.8,105.3,133.3,132.1c33.7,14.7,67.4,29.4,101,44.3c7.2,3.2,13.7,8,20.9,11.4c8.1,3.7,9.9,9.5,7.5,18.3
			c-7.7-5.2-14.4-11.1-22.2-14.9c-33-16.2-66.1-32.3-99.5-47.5c-29.1-13.3-58.4-26.1-83.8-46c-33.6-26.4-53.6-62-66.8-101.7
			c-12.2-36.5-22.9-73.6-35.7-110C1587.7,81.7,1536,35.8,1467.2,7.2c-4.6-1.9-8.8-4.7-13.2-7.1C1458.9,0.1,1463.8,0.1,1468.7,0.1z"
			/>
		<path class="st4" d="M722.3,581.2c-64.7-25.6-107.9-71.2-128.7-137.8c-10-31.9-20.4-63.6-30.5-95.4
			c-23.5-73.7-71.9-124.4-142.5-154.6c-27.7-11.8-55.2-24-83-35.4c-67.2-27.4-110-76.5-130.4-145.7c-1.2-4.1-2.5-8.1-3.8-12.1
			c3.1,0,6.1,0,9.2,0c19.7,65.6,58.2,116.2,120.1,146.8c34.3,17,69.8,31.5,104.6,47.5c36.7,16.9,70.3,38,93.8,72.1
			c18.5,26.9,29.4,57.2,39,88c9.3,29.8,18,59.9,28.6,89.3c22.4,61.8,64.7,105.8,123.6,134.3C722.3,579.2,722.3,580.2,722.3,581.2z"
			/>
		<path class="st3" d="M1560.4,0.1c18.5,12.9,36.6,26.1,51,43.9c24.3,30,36.8,65.4,48.3,101.5c10.3,32.4,20,65,32.4,96.6
			c22.6,57.6,64.7,97.3,120.3,122.9c33.4,15.4,67.3,29.6,101.1,44.1c6.5,2.8,10.3,6.1,7.6,13.3c-23-10.5-46.2-20.8-69.3-31.5
			c-26.7-12.4-54.1-23.8-79.9-37.9c-48.3-26.5-76-69.8-92.6-121c-11-34.1-21.3-68.4-33-102.2c-18.4-53.7-50.3-97.1-99.6-126.6
			c-1.2-0.7-2-2-2.9-3C1549.4,0.1,1554.9,0.1,1560.4,0.1z"/>
		<path class="st3" d="M1631.9,0.1c0.2,0.8,0.1,1.9,0.6,2.4c32.3,32.8,47.1,74.5,60.4,117.2c10.1,32.4,20.3,65,32.9,96.5
			c23.6,59,68.4,97.4,125.2,123c21.3,9.6,42.9,18.7,64.5,27.5c5.7,2.3,7.7,5.2,5.2,11.5c-43.2-20.2-88.9-34.7-128.9-61.5
			c-38.3-25.7-62.5-61.9-77.2-104.7c-12.1-35.3-22.6-71.1-34.5-106.4c-13.2-39.2-32.9-74.6-63.7-103c-0.6-0.5-0.6-1.6-0.9-2.4
			C1620.9,0.1,1626.4,0.1,1631.9,0.1z"/>
		<path class="st5" d="M353.7,0.1c18.6,25.4,43.2,44.1,70.9,57.9c34.8,17.3,70.8,32.3,106.2,48.5C572,125.2,609,149.1,633.1,189
			c15.9,26.3,25.4,55.1,34.6,84.1c10.4,32.7,20.1,65.7,32.8,97.5c19.1,48.1,52.5,84.6,97.7,110c3.4,1.9,6.6,4.1,9.1,7.8
			c-2.6-1-5.3-2-7.8-3.1c-56.5-26.4-91.3-71.4-110-129.8c-10-31.2-19.7-62.5-29.8-93.7c-23.9-74.1-72.5-125.4-144-155.7
			c-37.8-16-75.2-32.9-112.2-50.6c-23-11.1-42.2-27.8-58.4-47.7c-1.8-2.2-2.9-5.1-4.3-7.6C345.2,0.1,349.5,0.1,353.7,0.1z"/>
		<path class="st0" d="M256.6,0.1c0.9,3.1,1.4,6.4,2.7,9.3C284.5,66.1,328.7,103,384,128.2c31.8,14.4,64,28,95.7,42.5
			C535.3,196,573,237.8,592,295.9c8.3,25.3,15.8,51,23.6,76.4c-1,0-1.9,0-2.9,0c-7-21.3-13.7-42.8-21.2-63.9
			c-23.3-65.1-67.2-111.5-130-139.8c-34.4-15.5-69.2-29.9-103.6-45.4C302.7,98.5,265,57.6,245.5,0.1C249.2,0.1,252.9,0.1,256.6,0.1z
			"/>
		<path class="st6" d="M1686.9,0.1c27.2,43.4,38.1,92.9,53.4,140.9c11.8,37,26.5,72.5,51.7,102.8c28.7,34.5,66.3,55.8,106.6,73.4
			c5.8,2.5,11.6,5.4,17.6,7.4c5.6,1.9,6.9,5.1,4.4,10.7c-40.3-17.2-81.3-32.7-115.3-61.7c-29.5-25.2-47.6-57.5-59.8-93.5
			c-11.1-32.7-20.6-66-31.6-98.8c-9.2-27.5-21.2-53.7-38.5-77.3c-0.8-1.1-0.9-2.6-1.3-4C1678.4,0.1,1682.6,0.1,1686.9,0.1z"/>
		<path class="st2" d="M302.4,0.1C312.8,22.3,329,40,347.1,55.9c32,28.3,70.7,44.7,109.4,61.3c20.1,8.6,40.1,17.4,59.9,26.8
			c52.5,24.9,88,65.2,106.7,120.1c9.3,27.3,17.1,55,25.6,82.5c-1,0-1.9,0-2.9,0c-9.7-28.1-18.2-56.7-29.4-84.1
			c-22.3-54.7-62-93.6-114.9-118.8c-33.2-15.8-67.4-29.4-101-44.4c-39.9-17.8-75.5-41.2-99.2-79.2c-3.9-6.3-6.6-13.3-9.9-20
			C295.1,0.1,298.7,0.1,302.4,0.1z"/>
		<path class="st7" d="M1734.6,0.1c11,31.8,22.4,63.5,32.7,95.6c9.9,30.7,19.8,61.3,36,89.4c25.9,44.9,65,74.3,111.1,95.6
			c5.3,2.4,9.1,4.9,6.3,12.3c-30.3-12.8-59.4-27.2-84.5-49c-33.8-29.2-51.3-68.1-64.8-109.4c-12.2-37.2-24.5-74.4-37.1-111.4
			c-2.7-8-7.1-15.5-10.6-23.2C1727.3,0.1,1730.9,0.1,1734.6,0.1z"/>
		<path class="st5" d="M414.3,0.1c18.6,17.5,40.8,29.6,63.7,40.2c28.1,13,56.5,25.3,85.1,37.2c68.3,28.3,111.4,78.6,131.4,149.3
			c7,24.8,14.6,49.4,21.9,74.1c-1,0-1.9,0-2.9,0c-9-27.3-17.3-54.9-27.1-82c-24-66.5-70.6-111.7-134.7-139.8
			c-32.5-14.2-65.4-27.6-97.5-42.7c-15.8-7.4-30.4-17.7-45.3-27c-3.6-2.3-6.3-6.1-9.3-9.2C404.5,0.1,409.4,0.1,414.3,0.1z"/>
		<path class="st8" d="M1778.6,0.1c9.3,29.5,18.4,59,27.9,88.4c12.9,39.7,29.2,77.9,59.5,107.6c14.7,14.4,31.9,26.2,48.6,38.4
			c5.2,3.9,9.1,6.9,6.1,14.5c-2.1-0.9-4.5-1.7-6.7-2.9c-48.4-24.5-82.6-61.9-100.6-113c-13-36.9-24.4-74.4-36.5-111.6
			c-2.3-7.2-4.9-14.3-7.4-21.4C1772.5,0.1,1775.6,0.1,1778.6,0.1z"/>
		<path class="st4" d="M1360.5,1082.1c-1.4-3.5-2.1-7.5-4.1-10.6c-27-40.9-66.1-66.8-109.8-86.6c-29.6-13.4-59.6-26-89.3-39.3
			c-57.8-25.9-96.2-69.2-115.8-129.3c-1.8-5.5-3.4-11-5.2-16.5c0.9,0,1.9,0,2.8,0c12.8,33.9,28.7,65.8,54,92.4
			c28.3,29.8,63.5,48.7,100.5,65.2c36.1,16.1,72.4,31.7,107.5,49.6c29,14.9,51.2,38.2,67.4,66.7c1.4,2.5,2,5.6,3,8.4
			C1367.8,1082.1,1364.2,1082.1,1360.5,1082.1z"/>
		<path class="st5" d="M735.6,238.5c-8.3-22.5-15.5-45.4-25.1-67.4C684.7,111.7,638,73.8,579.9,48.3C547.4,34,514.8,19.9,482.3,5.7
			C479,4.2,476,2,472.9,0.1c5.5,0,11,0,16.5,0c18.7,9.1,37.3,18.6,56.3,27.3C568,37.7,590.8,47,613,57.5
			c55.5,26.2,90.7,70.1,109.3,127.9c5.7,17.6,10.8,35.4,16.2,53C737.5,238.5,736.5,238.5,735.6,238.5z"/>
		<path class="st9" d="M965.8,343.4c-52.5-23.2-89.6-61.3-109.3-115.4c-10.1-27.6-19.2-55.6-27.5-83.8
			C812.4,88.7,788.5,37.8,742.5,0.1c4.9,0,9.8,0,14.7,0c9.3,10.6,19.3,20.7,27.8,31.9c23.6,31.1,34,68.1,45.7,104.5
			c10.7,33.4,21.3,67.1,35,99.3c19.7,46.2,54.6,79.3,98.3,103.2c1.3,0.7,2.6,1.5,3.9,2.3C967.2,342.1,966.5,342.7,965.8,343.4z"/>
		<path class="st8" d="M1820.8,0.1c12.8,36.9,24.3,74.4,38.8,110.6c11.5,28.6,30.8,52.6,55,71.9c6.7,5.3,8.4,10.9,6.2,19.3
			c-15.6-9.7-28.6-21.8-40.2-35.5c-24.7-29.3-37.5-64.4-48.8-100.2c-6.9-22-13.5-44.1-20.2-66.1C1814.7,0.1,1817.7,0.1,1820.8,0.1z"
			/>
		<path class="st9" d="M1008.1,319.4c-62-24.9-103.7-68.9-124.5-132.5c-7.3-22.2-14.4-44.4-21.1-66.8c-12.9-43.1-29.6-84.2-57.7-120
			c3.7,0,7.3,0,11,0c30.2,42.1,42,91.7,56.6,140.1c9.6,31.7,20.7,62.8,38.3,91.1c24.2,39,59,65.9,99.5,86.2
			C1009.5,318.2,1008.8,318.8,1008.1,319.4z"/>
		<path class="st0" d="M768.6,212.8c-10.1-26.6-18.7-54-30.7-79.8C714,81.9,672.8,48,622.5,24.4c-15.4-7.2-31.1-13.7-46.7-20.6
			c-2-0.9-3.8-2.4-5.7-3.6c4.9,0,9.8,0,14.7,0c10.5,4.9,21,10,31.6,14.8c27.8,12.6,55,26.1,78.3,46.4c30.2,26.3,47.7,60.4,60.4,97.5
			c6.1,17.8,10.9,36,16.3,54C770.5,212.8,769.5,212.8,768.6,212.8z"/>
		<path class="st10" d="M911.2,0.1c15.2,46,28.8,92.7,45.9,137.9c21.3,56.2,62.6,94.7,116.1,120.8c8.2,4,16.2,8.1,24.4,12.2
			c-1.1,0.2-2.2,0.4-3.3,0.6c-74.5-26.4-127.1-74.1-150.3-151.8C932,79.5,917.3,40,903.9,0.1C906.3,0.1,908.8,0.1,911.2,0.1z"/>
		<path class="st9" d="M865.4,0.1c11,30.2,22.2,60.3,32.9,90.5c9,25.4,16.2,51.6,26.3,76.5c20.7,51.1,56.7,88.9,105.3,114.9
			c2.5,1.3,4.9,2.8,7.3,4.2c-0.4,0.8-0.8,1.6-1.2,2.4c-2.9-1.2-5.7-2.4-8.6-3.7c-61.2-27.6-96.7-76.4-116.3-139
			c-11.6-37.3-24.2-74.4-37.1-111.3c-4.2-11.9-10.6-23-16-34.5C860.5,0.1,862.9,0.1,865.4,0.1z"/>
		<path class="st9" d="M1108.5,235.3c-68.8-26.6-112.2-76.3-133.2-146.4c-8.9-29.7-18.3-59.2-27.4-88.7c1.8,0,3.7,0,5.5,0
			c12.7,38.3,23.4,77.3,38.5,114.7c21.2,52.7,61.1,88.7,111.2,114c2.7,1.4,5.3,2.8,8,4.3C1110.2,233.8,1109.4,234.6,1108.5,235.3z"
			/>
		<path class="st4" d="M801.6,187.2c-7.4-21.2-14.2-42.6-22.5-63.4C758.3,71.3,722.8,31.7,673,5c-2.6-1.4-5-3.3-7.5-4.9
			c4.9,0,9.8,0,14.7,0c12.3,8.1,25.1,15.6,37,24.4c28.4,21,48.3,48.9,60.7,81.6c10,26.6,17.8,54,26.6,81.1
			C803.5,187.2,802.6,187.2,801.6,187.2z"/>
		<path class="st7" d="M1861.1,0.1c9.7,26.5,18.1,53.5,29.5,79.2c7.3,16.4,19.7,30.5,28.5,46.3c3,5.4,2.3,12.9,3.3,19.5
			c-1.2,0.5-2.4,1-3.5,1.5c-8.6-12.2-18.1-23.9-25.6-36.8c-19.3-33.4-29.2-70.5-39.9-107.2c-0.2-0.8,0.2-1.7,0.3-2.6
			C1856.2,0.1,1858.7,0.1,1861.1,0.1z"/>
		<path class="st8" d="M1903.3,0.1c5.7,14.2,12.3,28.2,16.6,42.8c2.6,8.6,1.6,18.3,2.3,27.5c-1,0.3-2,0.6-3,0.8
			c-5.9-14.7-12-29.2-17.4-44c-3.2-8.8-5.1-18-7.6-27.1C1897.2,0.1,1900.3,0.1,1903.3,0.1z"/>
		<path class="st4" d="M1142.4,289.8c31.6,12.3,62.1,26.6,88.9,47.7c34.2,26.9,53.2,63.7,66.6,103.9c9.7,29.1,18.8,58.3,27.7,87.7
			c23.2,76.7,72,129.9,145.6,161c31.4,13.2,62.8,26.4,93.7,40.7c14.6,6.8,28.8,14.9,41.6,24.6c31.4,24,54.2,55.1,67.5,92.4
			c11.4,31.7,21.1,64,31.5,96.1c12.1,37.3,27,73.3,53.2,103.2c9,10.3,19.7,19,29.5,28.7c1.1,1.1,1,3.2,1.5,4.9
			c-12.7,2.2-20.8-4.9-29-13.2c-27.9-28.1-43.4-62.8-55.4-99.6c-12-36.9-23.2-74.2-36.5-110.6c-12.4-34-33.8-62.1-60.2-87.2
			c-26.7-25.3-59-40.2-91.6-54.9c-23-10.4-46.2-20.4-69.3-30.5c-60-26.3-99.3-71.1-118.8-133.4c-9.9-31.6-19.8-63.1-29.7-94.7
			c-24.4-77.8-75.7-130.5-150.5-161.2c-2.8-1.2-5.5-2.6-8.2-4C1141.2,290.9,1141.8,290.3,1142.4,289.8z"/>
		<path class="st1" d="M1285,533.8c8.9,23.2,16.4,47.1,26.9,69.6c22.2,47.7,58.6,82.2,105.7,104.8c32.6,15.7,66.1,29.3,99.2,43.9
			c66.5,29.2,113.1,76.5,133.7,147.4c6.6,22.7,13.8,45.3,21,67.8c16.7,51.9,24.9,68.1,56.9,112.2c-8.4,1.8-14.4,1.2-19.9-6.9
			c-20.4-29.8-31.3-63.6-42.1-97.5c-10.3-32.1-20-64.4-32.5-95.6c-18.9-47.2-53-81.2-96-108.2c-36.1-22.6-75.9-36.3-114.2-53.8
			c-50.1-22.9-92.1-54.1-114.1-106.3c-10.6-25.1-18.1-51.5-27-77.3C1283.4,533.9,1284.2,533.8,1285,533.8z"/>
		<path class="st0" d="M1251.9,559.5c8.3,22.5,15.6,45.4,25.2,67.4c23.8,54.2,65.5,90.8,118.3,115.7c14.3,6.7,29,12.6,43.4,19.2
			c21.7,9.9,43.3,20.2,64.9,30.2c56.5,26.1,92.6,69.9,111.8,128.5c12.2,37.2,23.8,74.7,36.8,111.6c5.7,16.2,14.3,31.4,21.5,47
			c-9.8,2.4-10.7,2.7-13.8-6.2c-12.8-36.3-25.4-72.7-37.4-109.3c-11.7-35.7-24.4-70.8-46.8-101.5c-27.7-37.9-66-61.7-107.8-80.8
			c-29.5-13.5-58.9-26.9-88.3-40.5c-57.5-26.6-95.3-70.5-114.4-130.6c-5.3-16.8-10.2-33.7-15.3-50.6
			C1250.6,559.5,1251.2,559.5,1251.9,559.5z"/>
		<path class="st4" d="M1626.8,1080.3c-0.7,0.1-1.5,0.2-2.2,0.3c-5.9,0.8-7.7-3.1-9.1-7.8c-10.3-33-20.5-66.1-31.1-99
			c-14.9-46.2-37.1-88-75.2-119.7c-29.9-24.8-64.7-40.8-100-55.9c-19-8.1-38.2-15.7-56.8-24.7c-65.6-31.6-107.4-82.9-125.3-153.5
			c0.9,0,1.9-0.1,2.8-0.1c11.5,30.6,24.1,60.7,46,85.4c11.7,13.2,24.4,25.7,38.3,36.5c34.6,26.8,74.6,43.8,114.9,60.1
			c21.6,8.8,42.8,19,63.2,30.3c43.9,24.4,71.8,62.5,88,109.2c12.5,35.8,23.4,72.1,35.2,108.1C1619,1060,1623.1,1070.1,1626.8,1080.3
			z"/>
		<path class="st5" d="M1582.9,1080.3c-2.5-0.1-4.9-0.2-7.4-0.3c-12-36.9-22.2-74.5-36.3-110.7c-23.1-59.7-67.8-99.3-125.2-125.5
			c-31.8-14.5-64-28.2-95.8-42.5c-57.4-25.9-94.8-69.7-115.3-128.7c-2.9-8.3-5.3-16.7-8-25.1c0.7,0,1.4,0,2.1-0.1
			c11.7,23.9,21.9,48.8,35.6,71.5c8.9,14.9,22.3,27.3,34.6,39.9c33.4,34.4,77.8,49.8,120.5,67.9c32.7,13.9,65.7,27.3,94.4,49
			c30.9,23.4,51.6,54.2,64.3,90.2c13,36.9,24.4,74.3,36.4,111.6C1583.1,1078.4,1582.9,1079.4,1582.9,1080.3z"/>
		<path class="st5" d="M1164,673.3c2.9,7.5,5.8,15.1,8.8,22.6c26.6,68,74.1,115.2,141.7,142.6c25.1,10.1,49.6,21.6,74.7,31.6
			c69.4,27.5,113.5,77.6,134.3,148.8c5.9,20.1,12.2,40,18.4,60.1c-7.3,4.3-7.6-2.1-8.8-5.7c-8.3-24.4-15.4-49.3-24.8-73.2
			c-23-58.2-65.1-98.6-121.1-124.8c-34.4-16.1-69.6-30.5-104-46.6c-29.6-13.8-56.8-31.6-76.3-58.2c-18.5-25.1-31.6-53.2-40.8-83.1
			c-1.4-4.5-2.7-9-4.1-13.4C1162.6,673.7,1163.3,673.5,1164,673.3z"/>
		<path class="st5" d="M1497.7,1081c-1.7-2.5-4-4.8-5.1-7.6c-8.4-20.8-15.3-42.4-24.9-62.6c-25.7-53.9-70.1-87.9-123.3-111.9
			c-34.4-15.5-69.3-29.9-103.1-46.5c-35.5-17.4-65.3-42.4-83.2-78.4c-11.8-23.7-20.6-48.9-30.7-73.4c1.1-0.4,2.2-0.9,3.3-1.3
			c0.9,2,1.8,4,2.6,6.1c17.2,47.2,39.2,91.2,80.6,122.5c27.7,20.9,58.7,35.5,90.5,49c24.3,10.3,48.7,20.6,72.7,31.8
			c53.1,24.7,88.4,65.6,107.6,120.7c5.7,16.5,11.1,33.1,16.6,49.7C1500,1079.7,1498.9,1080.3,1497.7,1081z"/>
		<path class="st4" d="M1109.1,755.7c8.7,22.5,19.9,43.6,34.6,62.8c25.2,32.7,58.1,55.3,95.1,72.3c32.6,14.9,65.8,28.5,98.6,42.9
			c64.7,28.4,103.9,78.1,121.8,145.7c-6.1,3.3-7.1-1.4-8.6-5.4c-10.8-29.7-25.3-57.3-46.2-81.3c-25.4-29.1-57.3-48.9-91.9-64.7
			c-32.4-14.8-65.2-28.5-97.4-43.6c-55.8-26.2-92.3-69.3-109.4-128.6C1106.9,755.8,1108,755.7,1109.1,755.7z"/>
		<path class="st4" d="M1072.2,774.1c11.3,28.7,24.7,56.3,44.8,80.1c28.9,34.3,66.5,55.8,106.8,73.4c30.3,13.3,61.2,25.4,91,39.9
			c51.2,24.8,86.3,64.2,100.7,113.9c-2.8-1.9-7-3.2-8.2-5.9c-27.9-61.2-77.7-97.7-137.3-123.7c-35.4-15.4-71-30.6-105-48.7
			c-51-27-78.8-72.8-94.6-126.8C1071,775.6,1071.6,774.9,1072.2,774.1z"/>
		<path class="st5" d="M1319.4,1079.5c-8,3.4-12.3-1.6-17.3-6.8c-25.5-26.6-56.6-45-89.9-60c-29.1-13.1-58.4-25.7-87.6-38.6
			c-59.1-26.1-97-70.9-116.4-132c-3.4-10.9-7-21.7-10.4-32.6c0.7-0.3,1.4-0.6,2.2-1c1,2.6,1.9,5.3,3.1,7.9
			c11.2,24.5,20.7,50.1,34.2,73.3c23.7,40.5,60.7,66.9,102.8,86.2c34.2,15.7,69.2,29.9,103.4,45.6c27.9,12.8,53.3,29.5,73.4,53.3
			c1,1.2,1.9,2.4,2.7,3.7C1319.7,1078.7,1319.5,1079.1,1319.4,1079.5z"/>
		<path class="st5" d="M1258,1080.3c-5-0.6-9.9-1.2-14.9-1.8c-23.8-19.3-51.5-31.7-79.2-44.1c-29.3-13.1-59.1-25.4-87.8-39.8
			c-52.6-26.4-83.4-71-100.8-126c-1.7-5.2-3.3-10.4-4.9-15.7c1,0,1.9-0.1,2.9-0.1c12.1,24.4,22.3,50,36.9,72.9
			c25.2,39.6,63.6,64,105.6,82.9c33.5,15.1,67.5,29,100.9,44.5c13.2,6.1,25.1,14.8,37.5,22.6
			C1255.8,1076.7,1256.8,1078.7,1258,1080.3z"/>
		<path class="st9" d="M1177,1081.5c-5.6-1.7-11.5-2.8-16.8-5.2c-32.9-14.4-65.7-28.7-98.4-43.6c-42.1-19.2-77-46.7-99-88.5
			c-16.8-32-26.2-66.7-36.4-101c-0.2-0.7,0.3-1.7,1-4.9c4.8,14.9,8.8,27.7,13.1,40.4c15.2,44.4,36.6,85,73.2,115.9
			c29.7,25.2,64.5,41.3,100,56.2c21.5,9,42.9,18.1,64.3,27.2C1177.8,1079.2,1177.4,1080.4,1177,1081.5z"/>
		<path class="st5" d="M1079.6,1080.1c-6.9-1.7-14.2-2.6-20.7-5.2c-28.8-11.7-56.7-25.2-81.3-44.7c-33.6-26.5-52.6-62.5-66.1-101.9
			c-3.4-9.7-6.1-19.7-9.1-29.5c1,0,2,0,3,0c10.3,29,21.5,57.5,39,83.1c28.2,41.2,68.2,67,112.7,87.2
			C1064.7,1072.5,1072.1,1076.4,1079.6,1080.1z"/>
		<path class="st11" d="M1285,533.8c-0.8,0.1-1.6,0.1-2.4,0.2c-9.8-28-18.3-56.6-29.8-83.8c-21.7-51.1-59.6-87.5-108.6-112.7
			c-4.9-2.5-9.7-5-14.6-7.5c0.7-0.6,1.4-1.2,2.2-1.8c58.7,23,103.7,60.5,126,121C1267.9,476.9,1276,505.5,1285,533.8z"/>
		<path class="st10" d="M612.7,372.4c1,0,1.9,0,2.9,0c10.2,25.6,18.8,52.1,31.1,76.7c23.3,47,62.6,77.9,108.7,100.8
			c1.6,0.8,3.2,1.6,4.2,4.1c-2.7-0.9-5.4-1.7-8-2.7c-67.8-27.6-109.6-78-129.7-147.5C618.8,393.3,615.7,382.9,612.7,372.4z"/>
		<path class="st12" d="M735.6,238.5c1,0,1.9,0,2.9,0c8.3,24.1,15.5,48.6,25.1,72.2c20.4,50.4,55.3,88.4,102.9,114.6
			c2.6,1.4,5.2,3,7.1,6.1c-2.8-1.1-5.6-2-8.2-3.2c-57.3-26.3-92.6-71.5-111.6-130.5C747.3,278,741.6,258.2,735.6,238.5z"/>
		<path class="st13" d="M645.7,346.7c1,0,1.9,0,2.9,0c9.4,23.6,17.4,48,28.5,70.8c22,45.2,58.3,76.6,102.4,99.5
			c2.4,1.3,4.9,2.5,7.2,3.9c0.4,0.2,0.5,0.9,0,3c-11.2-5.7-22.5-11.2-33.6-17.2c-45.3-24.6-74.3-62.8-91.5-110.6
			C655.9,379.8,651,363.1,645.7,346.7z"/>
		<path class="st12" d="M768.6,212.8c1,0,1.9,0,2.9,0c7.9,22.6,14.9,45.6,23.8,67.8c19.8,49.6,53.3,87.5,99.9,113.7
			c2.3,1.3,4.4,2.9,5.8,6c-2.6-1.1-5.3-2.1-7.8-3.3c-54.5-26-88-69.8-106.6-126C780.2,251.8,774.6,232.3,768.6,212.8z"/>
		<path class="st11" d="M801.6,187.2c1,0,1.9,0,2.9,0c7.7,22,14.5,44.3,23.3,65.9c20.4,49.9,54.7,87.7,101.9,113.9
			c0,0.6,0,1.2-0.1,1.7c-2.8-0.9-5.8-1.3-8.4-2.7c-43-21.9-74.8-54.6-92.5-99.5C818.3,240.5,810.5,213.6,801.6,187.2z"/>
		<path class="st11" d="M891.4,862c-10-33.8-22.6-66.5-40.6-96.9c-13.8-23.3-32.6-42.6-54.8-58c-14.1-9.9-29.5-18-44.2-26.9
			c0.8-0.6,1.5-1.2,2.3-1.8c41.3,17.9,77.6,42.3,100.6,82.2c18.2,31.7,29.7,66.2,39.3,101.4C893.2,861.9,892.3,861.9,891.4,862z"/>
		<path class="st13" d="M785,649.1c51.7,21.6,92.9,54.8,114.9,107.5c10.9,26.1,19,53.4,28.4,80.2c-0.8,0.3-1.6,0.6-2.3,0.8
			c-9.3-25.1-17.6-50.6-28.2-75.1c-10.9-25-26.9-47-46.8-65.9c-20.1-19-43.3-33.6-67.9-45.9C783.7,650.2,784.3,649.7,785,649.1z"/>
		<path class="st10" d="M713.6,300.9c1,0,1.9,0,2.9,0c8.9,21.2,16.5,43.1,27.1,63.4c21.6,41.5,55.2,71.2,96.2,93
			c2.6,1.4,5,3.1,7.6,4.7c-0.4,0.4-0.8,0.8-1.1,1.3c-64.4-26.4-105.5-73.7-125.7-139.8C718.2,315.9,715.9,308.4,713.6,300.9z"/>
		<path class="st9" d="M1104.2,359.3c63.8,25,106.7,69.8,127.7,135.2c2.2,6.9,4.4,13.9,6.6,20.8c-0.8,0-1.6,0.1-2.5,0.1
			c-9.9-21.4-18.2-43.7-29.9-64.2c-24-41.9-61.3-69.4-104-90.3C1102.8,360.4,1103.5,359.8,1104.2,359.3z"/>
		<path class="st11" d="M1204.7,548.3c-20.1-66.7-58.2-119.1-121.2-151.6c-2.1-1.1-4.1-2.5-6.2-3.8c1.1-0.2,2.1-0.4,3.2-0.6
			c59.4,24.8,98.4,68.4,118.5,129.3c2.9,8.8,5,17.9,7.5,26.9C1205.9,548.5,1205.3,548.5,1204.7,548.3z"/>
		<path class="st13" d="M946.3,774c-8.6-26.4-20-51.5-35.9-74.4c-21.5-30.9-49.8-53.9-83.5-71.5c14.7-1.3,59.6,30.7,79.3,56.5
			c20.4,26.7,34,56.7,42.1,89.3C947.6,773.9,946.9,773.9,946.3,774z"/>
		<path class="st10" d="M1171.1,570.4c-11.7-31.2-24.5-59.3-44.1-83.8c-19.4-24.4-43.5-43.2-71.1-58.7
			C1093.7,427.2,1170.5,521.2,1171.1,570.4z"/>
		<path class="st12" d="M869.3,601.5c60.4,29,93.7,78.8,109.7,141.8c-14.7-40.4-34-78.2-66.9-107.1c-13.9-12.2-29.8-22-44.7-33
			C868,602.6,868.6,602,869.3,601.5z"/>
		<path class="st11" d="M1134.6,587.4c-24-61.8-56.2-100-108.8-129.7C1058.1,454.8,1135.9,546.5,1134.6,587.4z"/>
		<path class="st11" d="M1010.5,493.2c51.5,27.8,79.2,73.2,94,128c-3-7.3-5.9-14.6-9-21.9c-18.5-43.5-47.4-78.4-87-104.3
			C1009.2,494.4,1009.9,493.8,1010.5,493.2z"/>
		<path class="st12" d="M1039,676.6c-19.1-53.5-49.7-96.5-98.6-125.7C971.5,551.3,1041.7,640.2,1039,676.6z"/>
		<path class="st12" d="M913.3,579.4c46.7,25.4,75.5,64.9,90.8,115.1c-19.6-47.1-49.5-85.7-92.8-113.3
			C912,580.7,912.7,580,913.3,579.4z"/>
		<path class="st12" d="M1068.3,637.8c-19.3-47.4-48.6-86.6-93-114.4C1003.3,524,1063.7,597.9,1068.3,637.8z"/>
		<path class="st14" d="M1236,515.4c0.8,0,1.6-0.1,2.5-0.1c4.5,14.7,8.9,29.5,13.4,44.2c-0.7,0-1.3,0-2,0
			C1245.3,544.8,1240.6,530.1,1236,515.4z"/>
		<path class="st14" d="M1142.4,289.8c-0.6,0.5-1.2,1-1.8,1.6c-15.4-6.6-30.8-13.1-46.2-19.7c1.1-0.2,2.2-0.4,3.3-0.6
			C1112.6,277.3,1127.5,283.6,1142.4,289.8z"/>
		<path class="st14" d="M1081,309c-14.8-6.4-29.6-12.9-44.4-19.3c0.4-1,0.9-2,1.3-3c14.7,6.7,29.4,13.4,44.1,20.1
			C1081.6,307.5,1081.3,308.3,1081,309z"/>
		<path class="st14" d="M754.1,678.3c-0.8,0.6-1.5,1.2-2.3,1.8c-14.1-6.6-28.2-13.2-42.4-19.9c7.5,2.5,15.2,4.7,22.6,7.7
			C739.5,671,746.7,674.8,754.1,678.3z"/>
		<path class="st14" d="M891.4,862c0.9,0,1.8-0.1,2.7-0.1c3.8,12.3,7.6,24.6,11.3,36.9c-1,0-2,0-3,0
			C898.7,886.5,895.1,874.2,891.4,862z"/>
		<path class="st14" d="M1109.1,755.7c-1.1,0-2.2,0.1-3.2,0.1c-4.1-12.2-8.3-24.4-12.4-36.6c0.8-0.3,1.6-0.5,2.4-0.8
			C1100.2,730.8,1104.6,743.2,1109.1,755.7z"/>
		<path class="st14" d="M692.5,611.1c0.7-0.6,1.5-1.2,2.2-1.8c12.3,5.5,24.7,11,37,16.5c-0.3,0.8-0.7,1.6-1,2.4
			C718,622.5,705.2,616.8,692.5,611.1z"/>
		<path class="st15" d="M913.3,579.4c-0.7,0.6-1.4,1.2-2,1.8c-10.3-5.7-20.5-11.4-30.8-17.1c0.4-0.7,0.8-1.5,1.1-2.2
			C892.2,567.8,902.8,573.6,913.3,579.4z"/>
		<path class="st14" d="M1230,620c-0.9,0-1.9,0.1-2.8,0.1c-3.6-11.7-7.3-23.4-10.9-35.1c0.8-0.2,1.6-0.5,2.4-0.7
			C1222.5,596.2,1226.2,608.1,1230,620z"/>
		<path class="st14" d="M973.3,852.9c-1,0-1.9,0.1-2.9,0.1c-3.5-11.3-7.1-22.7-10.6-34c0.9-0.3,1.7-0.5,2.6-0.8
			C966,829.7,969.7,841.3,973.3,852.9z"/>
		<path class="st15" d="M785,649.1c-0.7,0.6-1.3,1.1-2,1.7c-9.9-4.7-19.8-9.3-29.8-14c0.4-0.4,0.7-0.8,1.1-1.2
			C764.5,640.1,774.8,644.6,785,649.1z"/>
		<path class="st14" d="M1039.1,799.7c-0.9,0-1.9,0-2.8,0c-3-9.1-6-18.2-9-27.3c0.8-0.3,1.6-0.6,2.5-0.8
			C1032.9,780.9,1036,790.3,1039.1,799.7z"/>
		<path class="st14" d="M1072.2,774.1c-0.6,0.8-1.2,1.5-1.8,2.3c-3.3-10.4-6.6-20.7-9.9-31.1c0.8-0.3,1.7-0.6,2.5-0.9
			C1066.1,754.3,1069.2,764.2,1072.2,774.1z"/>
		<path class="st15" d="M965.8,343.4c0.7-0.6,1.5-1.2,2.2-1.9c8.6,4.2,17.2,8.4,25.8,12.6c-0.4,0.8-0.7,1.6-1.1,2.4
			C983.7,352.1,974.7,347.7,965.8,343.4z"/>
		<path class="st14" d="M1131.7,328.2c-0.7,0.6-1.4,1.2-2.2,1.8c-8.7-4.1-17.4-8.2-26-12.3c0.4-0.5,0.8-0.9,1.2-1.4
			C1113.7,320.2,1122.7,324.2,1131.7,328.2z"/>
		<path class="st15" d="M722.3,581.2c0-1,0-2,0-3c9.4,4.5,18.9,8.9,28.3,13.4c-0.3,0.4-0.6,0.8-0.9,1.2
			C740.5,588.9,731.4,585,722.3,581.2z"/>
		<path class="st14" d="M681.8,649.4c0.6-0.5,1.2-1.1,1.9-1.6c8.6,4.2,17.2,8.4,25.8,12.6C700.3,656.7,691.1,653,681.8,649.4z"/>
		<path class="st15" d="M1008.1,319.4c0.7-0.6,1.4-1.2,2-1.8c8.2,3.9,16.4,7.9,24.6,11.8c-0.3,0.4-0.6,0.8-1,1.1
			C1025.2,326.9,1016.7,323.1,1008.1,319.4z"/>
		<path class="st15" d="M1080.5,392.2c-1.1,0.2-2.1,0.4-3.2,0.6c-7.7-3.7-15.5-7.4-23.2-11.1c0.3-0.3,0.6-0.6,0.8-0.9
			C1063.5,384.6,1072,388.4,1080.5,392.2z"/>
		<path class="st14" d="M946.3,774c0.7,0,1.3,0,2-0.1c2.6,7.7,5.3,15.4,7.9,23.2c-0.8,0.3-1.7,0.5-2.5,0.8
			C951.2,789.9,948.7,781.9,946.3,774z"/>
		<path class="st15" d="M1010.5,493.2c-0.7,0.6-1.3,1.2-2,1.8c-5.6-3.5-11.3-6.9-16.9-10.4c0.4-0.4,0.8-0.8,1.1-1.2
			C998.7,486.6,1004.6,489.9,1010.5,493.2z"/>
		<path class="st14" d="M1197.1,647.5c-0.7,0-1.4,0-2.1,0.1c-1.8-6-3.6-12.1-5.4-18.1c0.5-0.4,1-0.8,1.5-1.3
			C1193.1,634.6,1195.1,641.1,1197.1,647.5z"/>
		<path class="st14" d="M1103.5,317.7c-6.6-2.5-13.3-5-19.9-7.5c0.3-0.9,0.7-1.8,1-2.6c6.7,2.9,13.4,5.8,20.1,8.7
			C1104.3,316.7,1103.9,317.2,1103.5,317.7z"/>
		<path class="st15" d="M1084.6,352.8c-6.5-2.8-13-5.5-19.4-8.3c0.3-0.7,0.5-1.3,0.8-2c6.5,2.6,13,5.3,19.5,7.9
			C1085.2,351.2,1084.9,352,1084.6,352.8z"/>
		<path class="st15" d="M1104.2,359.3c-0.7,0.6-1.4,1.1-2.1,1.7c-5.1-2.4-10.2-4.8-15.3-7.1c0.4-0.8,0.8-1.6,1.2-2.5
			C1093.4,354,1098.8,356.6,1104.2,359.3z"/>
		<path class="st15" d="M869.3,601.5c-0.7,0.6-1.3,1.1-2,1.7c-5-2.8-10.1-5.7-15.1-8.5c0.3-0.4,0.7-0.7,1-1.1
			C858.6,596.2,863.9,598.9,869.3,601.5z"/>
		<path class="st15" d="M753.2,636.8c-5.5-2.3-11.1-4.7-16.6-7c0.2-0.4,0.5-0.8,0.9-1.1c5.6,2.3,11.2,4.6,16.8,6.9
			C754,636,753.6,636.4,753.2,636.8z"/>
		<path class="st15" d="M852.2,594.7c-4.9-2.5-9.7-4.9-14.6-7.4l0.4-0.4c5.1,2.2,10.2,4.5,15.3,6.7
			C852.9,594,852.5,594.3,852.2,594.7z"/>
		<path class="st15" d="M1040.3,331.6c3.5,1.5,6.9,3,10.4,4.5c-0.3,0.6-0.5,1.3-0.8,1.9c-3.5-1.5-7-2.9-10.4-4.4
			C1039.7,332.9,1040,332.2,1040.3,331.6z"/>
		<path class="st14" d="M1187.3,622.4c-1.3-3.7-2.7-7.4-4-11.1c0.7-0.2,1.5-0.5,2.2-0.7c1,3.6,2,7.2,3,10.9
			C1188.1,621.8,1187.7,622.1,1187.3,622.4z"/>
		<path class="st14" d="M955.6,805.5c-0.1-1.9-0.2-3.7-0.3-5.6c0.4-0.1,0.9-0.1,1.3-0.2c0.3,1.9,0.7,3.8,1,5.7
			C956.9,805.5,956.3,805.5,955.6,805.5z"/>
		<path class="st15" d="M1002.8,359.7c-2.5-0.7-4.9-1.4-7.4-2.2c0.3-0.7,0.6-1.4,0.8-2.1c2.4,1.2,4.7,2.4,7.1,3.7L1002.8,359.7z"/>
		<path class="st14" d="M1189.6,629.4c-0.8-2.3-1.5-4.7-2.3-7c0.4-0.3,0.8-0.6,1.1-0.9c0.9,2.2,1.8,4.5,2.6,6.7
			C1190.6,628.6,1190.1,629,1189.6,629.4z"/>
		<path class="st15" d="M1050.5,379.8c-1.1-0.1-2.2-0.3-3.3-0.4c0.1-0.4,0.2-0.8,0.3-1.3c1.1,0.4,2.1,0.9,3.2,1.3
			C1050.8,379.4,1050.5,379.8,1050.5,379.8z"/>
		<path class="st15" d="M1050.8,379.4c1.4,0.5,2.7,1,4.1,1.4c-0.3,0.3-0.6,0.6-0.8,0.9c-1.2-0.6-2.4-1.3-3.6-1.9
			C1050.5,379.8,1050.8,379.4,1050.8,379.4z"/>
		<path class="st15" d="M1011.5,362.9c-0.9-0.1-1.8-0.3-2.7-0.4c0,0,0-0.5,0-0.5c0.9-0.1,1.8-0.1,2.7-0.2
			C1011.5,362.2,1011.5,362.5,1011.5,362.9z"/>
		<path class="st15" d="M1003.3,359.1c1,0.3,2.1,0.5,3.1,0.8c-0.1,0.4-0.3,0.8-0.4,1.2c-1.1-0.5-2.1-0.9-3.2-1.4
			C1002.8,359.7,1003.3,359.1,1003.3,359.1z"/>
		<path class="st15" d="M1052.7,337.8c0.9,0.1,1.8,0.2,2.7,0.4c0,0,0,0.5,0,0.5c-0.9,0.1-1.8,0.2-2.8,0.3
			C1052.7,338.6,1052.7,338.2,1052.7,337.8z"/>
		<path class="st15" d="M1034.7,329.4c1,0.4,2.1,0.9,3.1,1.3c-0.1,0.4-0.3,0.8-0.4,1.2c-1.2-0.5-2.4-0.9-3.6-1.4
			C1034.1,330.2,1034.4,329.8,1034.7,329.4z"/>
		<path class="st15" d="M837.6,587.3c-1.1-0.2-2.2-0.4-3.2-0.6c0.1-0.4,0.3-0.8,0.4-1.3c1.1,0.5,2.1,1,3.2,1.4
			C837.9,586.9,837.6,587.3,837.6,587.3z"/>
		<path class="st15" d="M750.5,591.6c1,0.4,2,0.9,3,1.3c-0.1,0.4-0.3,0.8-0.4,1.1c-1.2-0.4-2.3-0.9-3.5-1.3
			C749.9,592.3,750.2,592,750.5,591.6z"/>
		<path class="st15" d="M755.5,595.5c0.4-0.6,0.7-1.3,0.9-1.2c0.8,0.1,1.5,0.5,2.2,0.8c-0.3,0.4-0.6,1.1-0.8,1.1
			C757.1,596.1,756.4,595.8,755.5,595.5z"/>
		<path class="st15" d="M829.6,584c0.7-0.3,1.2-0.7,1.7-0.6c0.3,0,0.6,0.7,0.9,1c-0.5,0.2-1,0.6-1.5,0.5
			C830.3,584.9,830,584.4,829.6,584z"/>
		<path class="st10" d="M847.3,461.9c1,0.3,2.1,0.6,3.1,0.9c-0.1,0.4-0.2,0.8-0.3,1.1c-1.3-0.3-2.6-0.5-4-0.8
			C846.6,462.8,846.9,462.3,847.3,461.9z"/>
		<path class="st15" d="M974.9,476.2c0.4-0.3,0.7-0.9,1-0.8c0.4,0,0.8,0.5,1.2,0.8c-0.2,0.2-0.4,0.6-0.5,0.6
			C976,476.7,975.5,476.4,974.9,476.2z"/>
		<polygon class="st15" points="877.2,561.7 877.5,561.1 877.2,561 		"/>
		<path class="st15" d="M988.1,482.6c-1.2-0.6-2.4-1.3-3.6-1.9c0.3-0.2,0.5-0.5,0.8-0.7c1.2,0.5,2.4,1.1,3.7,1.6
			C988.6,482,988.3,482.3,988.1,482.6z"/>
		<path class="st15" d="M991.6,484.6c-1.2-0.6-2.4-1.3-3.6-1.9c0.3-0.3,0.5-0.7,0.8-1c1.3,0.6,2.6,1.2,3.9,1.7
			C992.4,483.8,992,484.2,991.6,484.6z"/>
		<path class="st14" d="M736.6,629.8c-1.1-0.4-2.2-0.7-3.2-1.1c0.1-0.4,0.3-0.8,0.4-1.2c1.3,0.4,2.5,0.9,3.8,1.3
			C737.1,629,736.8,629.4,736.6,629.8z"/>
		<path class="st15" d="M984.4,480.7c-0.5-0.5-0.9-1-1.4-1.4c0.7,0.2,1.4,0.5,2.1,0.7C984.9,480.2,984.7,480.5,984.4,480.7z"/>
		<path class="st15" d="M980.4,477.6c0,0.2,0.1,0.4,0,0.5c-0.1,0.1-0.4,0.2-0.6,0.3c0-0.3,0-0.7,0-1
			C980.1,477.4,980.2,477.5,980.4,477.6z"/>
		<path class="st0" d="M6.4,8.2c7.7,21.2,15.8,42.2,23,63.6c11,32.5,20.1,65.7,32.2,97.8c23.2,61.5,67.8,103.1,126.8,129.9
			c31,14.1,62.1,28,93.4,41.5c64.1,27.5,103.5,76.1,123.3,142c9.6,32,19.6,63.9,30.1,95.5c23.6,71.2,71.7,119.8,139.7,149.5
			c25.3,11.1,51.3,20.9,76,33.2c40.6,20.3,80.2,42.4,105.4,82.8c18.4,29.5,29.3,62,39.3,95c10.9,36,20.9,72.5,39,105.9
			c6.4,11.7,13.8,22.9,20.9,34.4c-6.2,3.2-9.8,0.2-13.2-5.2c-19.9-31.5-30-66.9-40.9-102.1c-8.3-26.6-16.4-53.4-26.7-79.3
			c-22.1-55.5-61.7-95.2-115.2-121c-33.8-16.3-68.1-31.5-102.3-46.9c-44.4-20.1-83.3-47.1-105-92.2c-12.2-25.3-20.8-52.4-30.3-79
			c-11.6-32-20.7-64.9-34.1-96c-23.7-55.4-67.2-91.8-121.3-116.1c-28.8-13-57.8-25.5-87.1-37.4C112,276.5,68.1,228.3,47,158.6
			C35.7,121.1,24,83.6,9.6,47.2C4.5,34.1,3.9,22.1,3.4,9.1C4.4,8.8,5.4,8.5,6.4,8.2z"/>
		<path class="st4" d="M3.8,125.1c8.6,24.5,16.5,48.7,25.5,72.4c21.8,57.5,61.6,98.9,116.7,125.4c32.3,15.5,65.5,29.2,98.2,44
			c43.1,19.5,82,44.8,104,88.2c13.2,26.1,22.6,54.3,32.7,81.9c12,32.8,21,66.8,34.5,98.9c24.6,58.5,71.1,95.3,127.7,120.9
			c27.6,12.5,54.9,25.6,82.7,37.4c67.1,28.4,109.2,78.1,130,147.5c11.5,38.4,25.2,76.1,38.2,114c2.7,8,7.2,15.4,11,23.3
			c-6.4,3.6-8.8-0.4-10.4-5.2c-10-29.6-20.5-59.1-29.9-88.9C753.7,950,742.5,915.4,723,884c-27.8-44.6-69.1-72.3-115.8-93.2
			c-14.4-6.5-29.3-11.9-43.5-18.7c-24.3-11.6-48.7-23.1-72.2-36.1C448.4,712,421,674.7,405,628.8c-12.5-35.8-23-72.4-35.2-108.3
			c-13.6-40-33.6-76.3-65.4-105.2c-26.4-23.9-57.3-40.1-89.6-54c-24.3-10.5-48.6-20.8-73-31C78.4,303.7,37,257.4,16.4,192.1
			c-3.8-12.2-9.7-23.8-12.3-36.2C2.1,146,3.8,135.3,3.8,125.1z"/>
		<path class="st1" d="M2.7,243.6c10.5,15.9,19.1,30.5,29.3,43.9c26.3,34.4,62.1,56.2,100.9,73.7c28.8,13,57.8,25.5,86.8,38.3
			c60.7,26.7,99.6,72.4,119.4,135.3c11.9,37.9,23.4,76,37,113.4c17.8,48.7,49.6,86.4,93,115.4c30.2,20.2,63.8,32.1,96,47.4
			c25.2,12,50.8,23.8,74.6,38.2c35.8,21.6,59.2,54.5,73.2,93.2c16.4,45.3,30.6,91.4,45.7,137.1c-0.6,0.5-1.2,1.1-1.8,1.6
			c-2-2.3-4.9-4.3-5.7-7c-8.6-26.9-16.8-53.9-25.2-80.9c-13.1-41.9-30.4-81.5-61.4-113.8c-28.9-30.1-64.8-49-102.5-65.3
			c-29.6-12.8-59.9-24.1-88.3-39.2c-50.9-27.1-86-68.6-103.7-124.1c-10.6-33.3-21.1-66.6-31.7-99.8
			c-24.5-76.9-76.2-127.8-149.9-158.3c-35.1-14.5-69.9-29.7-104-46.4c-34.3-16.8-60.5-43.2-79-76.6C1.7,263,3.6,253.4,2.7,243.6z"/>
		<path class="st1" d="M713.8,1081c-1.5-2.4-3.4-4.6-4.3-7.2c-8.3-25.7-15.9-51.6-24.6-77.2C661.2,927.2,614,879.8,547.4,851
			c-28.7-12.4-57.4-25.1-86.3-37.1C398.4,787.7,358,741.3,337,677.3c-11.1-33.8-21.5-67.7-32.5-101.5
			c-24-73.4-73.6-122.6-144.1-152.2C127.9,410,95.3,396.5,63.7,381c-17.6-8.6-33.2-21.4-49.8-32.1C4,342.7,1.3,334,3.8,323.6
			c13.1,11.2,25.7,23.4,39.7,33.9c29.5,22,63.6,35.5,97.1,50.1c22.9,9.9,45.7,20.1,67.7,31.7c49.6,26.1,80.1,68.3,97.4,120.6
			c12.1,36.6,22.8,73.6,35.5,110c12,34.6,31.3,64.9,56.8,91.8c29,30.5,65.6,47.6,102.9,64.2c23.6,10.5,47.4,20.6,71,31.2
			c58.1,26.2,96.2,70.2,115.6,130.6c9.8,30.5,19.4,61.1,29.1,91.7C715.7,1079.8,714.7,1080.4,713.8,1081z"/>
		<path class="st1" d="M671.7,1080.8c-1.4-3.3-2.9-6.5-4.2-9.8c-9.7-26.2-17.8-53.1-29.5-78.4c-23.6-51.4-64.7-85.5-115.3-108.8
			c-37.6-17.3-75.8-33.1-113.2-50.8c-30.2-14.3-56.3-34.7-74.5-63.1c-17.3-27-28.6-56.8-38.4-87.4c-11.8-37-23-74.4-38.2-110
			c-24.9-58.5-72.2-94.4-129-119.4C90.6,436,52.1,418,13.3,400.5c-7.9-3.6-12.2-8.8-9.2-18.6c10.4,6.6,20.2,14.2,31.1,19.5
			c35.7,17,71.7,33.2,107.7,49.6c30.1,13.7,58.8,29.5,82.2,53.6c25.5,26.3,40.3,58.4,51.6,92.5c11.6,35.2,21.8,70.8,34.2,105.7
			c25.3,71,75.8,117.6,144.5,146c28.9,12,57.7,24.4,86.1,37.5c58,26.5,95.3,71.3,114.7,131.6c6,18.8,12,37.6,17.9,56.5
			c0.5,1.6,0.3,3.5,0.4,5.2C673.6,1080,672.7,1080.4,671.7,1080.8z"/>
		<path class="st3" d="M3.7,484.5c0-2.3,0-4.7,0-7c0.9-0.2,1.5-0.6,1.9-0.4c29.6,12.8,59.3,25.4,88.6,38.7
			c58.7,26.5,96.8,71.3,116.4,132.3c12.8,39.9,24.5,80.2,38.9,119.5c17.4,47.9,47.7,86.9,92.4,112c32.2,18.1,66.5,32.7,100.3,48
			c26.9,12.2,54,24,77.9,41.7c37.7,27.8,59.1,66.4,73.4,109.9c-6.1,3.2-7.3-1.1-8.9-5.2c-15.5-39.4-38.4-73.4-72.1-99.6
			c-25.7-20-54.8-33.9-84.6-46.6c-35.5-15.1-71.9-28.4-104.7-49.3c-42.7-27.3-68-66.9-83.1-114.3c-12.4-39.1-24.2-78.4-38.3-116.8
			C180,588.1,138.7,546.1,81.9,519.3C56.3,507.2,30.3,496.3,3.7,484.5z"/>
		<path class="st3" d="M549.7,1082c-3.9-2.4-8-3.4-9.2-5.8c-26.1-50.9-67.8-84.6-119-107.7c-30.7-13.9-61.7-27.1-92.8-40.4
			c-61.6-26.3-101.6-71.9-121.6-135.5c-10.5-33.6-20.4-67.4-31.4-100.8c-22.9-70.1-69.1-119.2-136.5-148.8c-10-4.4-20-9-30.1-13
			c-5.3-2.1-7.1-5-4.8-10.9c38.3,16.2,77.1,31.3,109.9,58c34.5,28.1,53.4,65.9,66.8,107c10.2,31.1,19,62.7,29.1,93.9
			c23.6,73.3,72.2,123.5,142.4,153.8c34.6,14.9,69.3,29.8,103.2,46.3c41,20,71.9,50.9,91.1,92.8c1,2.2,2,4.4,2.9,6.7
			C549.9,1078.2,549.7,1078.9,549.7,1082z"/>
		<path class="st6" d="M501.7,1081.4c-3.7-1.5-8.9-2-10.9-4.8c-26.6-36.7-62.5-61.3-103.1-79.7c-34.1-15.4-68.7-29.6-102.6-45.3
			c-57.5-26.7-92.4-73-111-132.5c-11.1-35.4-21.2-71.1-33.5-106c-22.8-65-66.9-110.9-129.6-138.9c-5.6-2.5-9.7-5.1-7.1-11.8
			c69.7,25,119.6,70.1,142.3,142.2c9.7,31,19.2,62,28.5,93.1c24.4,81.6,77.7,135.9,156,167.7c34.6,14.1,68.6,30,102,46.7
			c26,13,47.3,32.3,64.1,56.3c2.4,3.4,4.4,7,6.7,10.5C502.8,1079.7,502.3,1080.5,501.7,1081.4z"/>
		<path class="st7" d="M450.2,1079.2c-8.8,2.4-14,0.4-19.8-5.1c-26.8-25.2-58.9-41.8-92.4-56.2c-23.5-10.1-46.9-20.1-70.5-30
			c-64.9-27.3-106.4-75.2-126.6-142.5c-10.4-34.6-20.8-69.2-32.7-103.2c-18.5-53-51.3-95-100.2-123.9c-3.2-1.9-4.2-7.3-5.1-11.8
			C42,624,72.9,649.7,93.7,687c18.4,33,27.9,69.1,38.4,104.9c10.5,35.6,21.9,70.9,41.5,102.9c27.2,44.4,67.5,72.9,114,93.8
			c30.2,13.6,60.8,26.4,90.9,40.2C405.1,1041,429.4,1056.6,450.2,1079.2z"/>
		<path class="st6" d="M382.5,1082.3c-7.3-2.5-14.9-4.5-21.9-7.7c-34.2-15.7-68.1-32.2-102.5-47.5c-33.5-15-66.6-30.2-93.6-56.1
			c-28.4-27.2-44.2-61.6-56.2-98c-11.7-35.4-21.8-71.4-34.2-106.6c-12.8-36.5-33.4-68.4-63.3-93.5C4.2,667.4,2,662,4.2,653.3
			c18.9,12.5,34.4,28.1,47.4,46.3c21,29.5,30.9,63.7,41.8,97.6c10.8,33.5,21,67.3,34.5,99.7c23.8,57,68.5,93.7,123.6,118.7
			c31.8,14.4,64.1,27.9,95.8,42.4c12.6,5.8,24.6,13.2,36.8,19.8C383.6,1079.3,383,1080.8,382.5,1082.3z"/>
		<path class="st8" d="M297.2,1081.6c-7.6-1.7-15.7-2.5-22.8-5.4c-27-11.1-53.8-22.5-80.4-34.6c-56.5-25.9-94.5-68.6-113.7-127.8
			c-11.2-34.3-21.4-69-33.1-103.1c-9.9-28.8-22.2-56.5-41.1-81c-3.4-4.5-2.5-12.3-3.6-18.6c1-0.5,2-0.9,3-1.4
			c6.6,9.2,13.9,18,19.8,27.6c18.9,30.6,27.9,65.1,39,98.8c10.5,31.7,20.3,63.8,33.7,94.3c22.4,50.7,62,85.4,111.4,109
			c29,13.9,58.7,26.3,88.1,39.4C297.5,1079.7,297.4,1080.7,297.2,1081.6z"/>
		<path class="st7" d="M6.8,788.3c9.8,29.9,19.3,60,29.6,89.8c10,28.6,19.1,57.8,31.8,85.2c21.9,47.2,59.4,79.7,105.4,102.9
			c8.4,4.2,16.8,8.3,25.3,12.4c-0.2,1-0.4,2-0.6,2.9c-8-1.7-16.6-2.2-24-5.4c-27.5-12-53.4-26.8-75.1-48
			c-27.8-27.2-43.5-61.3-55.4-97.6c-10.1-30.9-19.4-62-29.5-92.9c-2.5-7.7-8.3-14.5-9.9-22.3c-1.7-8.5-0.4-17.5-0.4-26.4
			C5,788.8,5.9,788.6,6.8,788.3z"/>
		<path class="st9" d="M624.9,710.5c0.1-0.8,0.1-1.7,0.2-2.5c34.2,15.7,69.8,29,102.1,47.9c41.8,24.3,69.2,62.5,84.9,108.3
			c11.6,33.8,21.9,68.2,33.2,102.1c14.2,42.8,35.1,81.6,70.3,112.9c-6.7,1.6-10.9,1.6-15.9-3.2c-29-28.1-44.2-63.7-56.3-101
			c-11.6-35.5-22.1-71.3-34.8-106.4c-14.4-39.4-39.1-71.5-71.7-98.5c-29.1-24.2-63.3-37.9-97.1-52.9
			C634.9,715,629.9,712.7,624.9,710.5z"/>
		<path class="st8" d="M115.3,1079.4c-12.7,2-21.3,0.7-30.1-6.1c-35.7-27.5-56.9-64.3-71-106.1c-3.4-10-8.5-19.6-10.5-29.9
			C2,927.9,3.4,917.9,4.1,908C23.7,975.8,50,1039.1,115.3,1079.4z"/>
		<path class="st5" d="M859.5,882.2c9.5,27.9,17.8,56.2,28.8,83.5c18.9,46.9,50.3,83.9,94.1,109.8c1.7,1,3.3,2.3,4.9,3.4
			c-0.3,0.8-0.6,1.7-0.9,2.5c-4.8-1.4-10.2-2-14.5-4.4c-50.9-28.2-78.5-74-95.3-127.6c-7-22.3-13.3-44.8-20-67.2
			C857.6,882.2,858.5,882.2,859.5,882.2z"/>
		<path class="st10" d="M859.5,882.2c-0.9,0-1.9,0-2.8,0c-9.1-22.8-16.8-46.2-27.6-68.1c-24.8-50.3-65-84.9-115.8-107.8
			c-5.5-2.5-11-5.2-16.5-7.8c0.7-0.5,1.3-1.1,2-1.6c36.1,14.3,71,30.9,98.3,59.4c21,22,35.6,48.3,46.2,76.7
			C849.3,849.2,854.1,865.8,859.5,882.2z"/>
		<path class="st8" d="M44.1,1079.8c-9.6,2.5-17.8,0.2-23.7-9.5c-4.6-7.5-11.7-13.8-14.8-21.8c-2.9-7.5-2.1-16.6-3-26.2
			C17,1042.3,30.5,1061,44.1,1079.8z"/>
		<path class="st14" d="M698.8,696.8c-0.7,0.5-1.3,1.1-2,1.6c-16.7-7.1-33.4-14.2-50.2-21.4c0.8-0.6,1.5-1.2,2.3-1.9
			C665.5,682.5,682.1,689.6,698.8,696.8z"/>
		<path class="st0" d="M1164.6,256.7c41.5,16.3,82.4,33.7,114.5,66.1c29,29.2,43.5,66.2,55.8,104.3c11,34.1,20.9,68.6,33.8,102
			c24.3,63.1,71.4,104.1,132.1,130.9c36.4,16.1,73.2,31.3,109.1,48.5c26.7,12.8,50.1,30.9,67.1,55.5c17.5,25.4,30.1,53.4,39.4,82.8
			c11,34.7,21.4,69.6,34.2,103.7c21.2,56.4,60,97.5,113.9,124.4c2.3,1.2,4.5,2.5,6.8,3.8c-0.2,0.9-0.4,1.8-0.6,2.8
			c-7.9-1.5-16.6-1.3-23.6-4.6c-59.8-28.5-92.3-78.8-110.9-140.2c-10.6-35.2-21-70.5-33.9-104.8c-24.4-65-70.5-109.8-134.2-137
			c-28.5-12.2-56.8-25-85.3-37.2c-63.7-27.4-104.3-74.9-124.4-140.9c-11.2-36.9-22.2-73.9-35.6-110
			c-23.3-62.7-67.8-105.9-128.2-133.5c-10.8-4.9-21.5-9.9-32.3-14.9C1163.2,257.8,1163.9,257.2,1164.6,256.7z"/>
		<path class="st14" d="M1164.6,256.7c-0.7,0.6-1.4,1.1-2,1.7c-18-7.7-36-15.4-54-23.1c0.8-0.7,1.7-1.5,2.5-2.2
			C1128.9,241,1146.8,248.8,1164.6,256.7z"/>
	</g>
</g>
</svg>
