<svg id="Layer_1" data-name="Layer 1" xmlns="http://www.w3.org/2000/svg" viewBox="0 0 750 440"><defs><style>.cls-1{opacity:0.3;}.cls-2{fill:#fff;}</style></defs><title>halftone_mobilev2_white</title><g class="cls-1"><path class="cls-2" d="M.66,156.47V146.12c1.23-.06,2.46-.17,3.68-.17H749a1.29,1.29,0,0,0-1.08-.46H65.7q-32.51,0-65-.14v-4.44l143.74-.13H749.16v-.53H85.26q-42.3,0-84.6-.1V112.83h749a6.16,6.16,0,0,0-3.23-.72H.65v-4.43c3.94,0,7.87-.15,11.81-.15H134.75q57.45,0,114.9,0,61.14,0,122.29,0,60.76,0,121.54,0,58,0,116,0H749.59v-.91a14.93,14.93,0,0,0-2.31-.32H65.3Q33,106.3.66,106.16V79.55c12.93,0,25.86-.13,38.8-.13H749.1V79h-690c-19.46,0-38.93-.11-58.39-.17V68.46c1.47,0,2.95-.11,4.43-.11h744.2v-.6h-644Q53,67.78.66,67.72V63.28l71-.1H749.34a2.39,2.39,0,0,0-1.78-.61H105.24Q53,62.58.66,62.54V35.17H749.43v-.65h-605q-71.91,0-143.81-.06V24.08c1.84-.06,3.69-.17,5.53-.17H748.94a13.81,13.81,0,0,0-4.05-.4H52.38c-17.24,0-34.48-.11-51.72-.17V18.9c7.63,0,15.26-.14,22.9-.14H749.07c-12.42-.48-24.85-.48-37.27-.48H71.92q-35.64,0-71.29-.12V.41H751.4V441.24H.66V433.1h749v-.69H.66V428c15.14,0,30.29-.1,45.44-.1H749.2v-.52H72q-35.65,0-71.31-.13v-27.4c6.28,0,12.56-.11,18.84-.11H749.21v-.49H65.35c-21.56,0-43.13-.09-64.69-.14v-9.62c6.16,0,12.32-.11,18.47-.11H749.19v-.55H85.68q-42.51,0-85-.09v-5.18c17,0,34-.1,51-.1H749.33a2.39,2.39,0,0,0-1.78-.63H118.18q-58.77,0-117.52-.07V356.18q61.73,0,123.47-.05H749.58v-.69H.67V345.08c9.59-.06,19.19-.17,28.79-.18H181.19c-8.61-.34-17.21-.34-25.82-.34H45.7c-15,0-30-.13-45-.2v-4.43c1.47-.08,3-.22,4.42-.22q34.74,0,69.48.05,93.87,0,187.74-.07,110.51,0,221,.07H748.82c-32.15-.44-64.29-.44-96.43-.44H58.66q-29,0-58-.15V322.89c1.84-.07,3.68-.22,5.53-.22H339.25v-.25H39.08c-12.81,0-25.61-.17-38.42-.26V311.8h748.9a4.2,4.2,0,0,0-2.51-.66H.66V306.7c.74,0,1.47-.08,2.21-.08H749.26a10.06,10.06,0,0,0-4-.55H78.66q-39,0-78-.11V278.51q50.45,0,100.91-.07H749.25v-.56H85.31q-42.33,0-84.65-.11V267.42c6-.05,12.06-.14,18.1-.14H749.11v-.51H72c-23.78,0-47.56-.08-71.33-.12v-4.44c23.65,0,47.3-.12,71-.12H749.25c-8.73-.55-17.45-.55-26.18-.55H98.6l-97.94,0V234.14h749v-.73H.66V229c16.25-.05,32.5-.13,48.75-.14H748.94c-8.86-.45-17.71-.45-26.57-.45H59c-19.45,0-38.9-.09-58.35-.14V200.85c1.23-.07,2.45-.2,3.68-.2h744.6v-.36H45.74c-15,0-30.05-.13-45.08-.21V190.5q42,0,83.9-.08h665a4.33,4.33,0,0,0-2.51-.62H131.88q-65.61,0-131.22-.05v-5.18c7.51,0,15-.07,22.54-.08H749.31a2.51,2.51,0,0,0-1.78-.58H91.93L.66,183.84V157.21l114.6-.05H749.35v-.61H111.21Q55.94,156.57.66,156.47ZM748.82,322.63l-.11-.14H488.3v.14Zm-264.69,0-.13-.14H343.33v.14Zm17.32,22,.13.17H642.49v-.17Zm-158.31,0v.17H484.37v-.17Zm-151.51,0v.19h141v-.19Zm-145,5.17-.16.22h128.1v-.22Zm279.55.27-.06-.2h-128v.2ZM508,349.83v.2H629.5v-.2Zm-151.62,0v.2H477.86v-.2Zm392.68-5v-.18H646.45v.18Zm-89.44,5V350H749v-.22Zm7-132.4-.13.2h55.34v-.2ZM515,217.37l-.16.19h48.5v-.19Zm-37.35.25v-.2H428.91v.2Zm-120.93-.25-.16.19H405v-.19Zm-37.26.23v-.14H270.78v.14Zm-65.89,0-.13-.19H204.84v.19ZM119,217.38v.14h48.52v-.14Zm468.34,0v.19h42v-.19ZM95,217.57v-.2H53.16v.2ZM702,29.73v-.18H673v.18ZM290.54,29.5l.16.21h22.15V29.5Zm79.15,0v.19H392V29.5Zm-136,.21-.08-.21H211.36v.21Zm230.77,0-.08-.21H442.12v.21Zm56.88-.24.17.21h22.13V29.5Zm158.4,193.84v.13h21.71v-.13Zm-237.2,0-.05.16h21.76v-.16Zm-50.89.23.18-.15H370v.15Zm-237.4,0,.14-.16h-22v.16Zm-21.86-194,.11.17h21.91v-.17ZM82,29.73v-.21H59.69v.21ZM680.19,1.46v.06h21.26V1.46Zm-540.92.05v.07h15V1.51Zm461.32,28-.12.21h15.66v-.21Zm0,193.78v.13h15.07v-.13Zm-72.3,0-.17.15h15.17v-.15Zm-222.2.21v-.15H290.76v.15Zm-87.79-.2v.17h15.1v-.17Zm-143.13.18v-.16H59.87v.16ZM139.08,96.09v.15h15.31v-.15Zm94.4.14V96.1H218.27v.13Zm57.23-.14v.15H306v-.15Zm94.25.18.1-.16H369.94v.16Zm79.36,0v-.16H449v.16Zm230.77,0v-.16H679.74v.16Zm-79.32,0v-.13h-15v.13Zm-87.47-.21v.16h15.07v-.16Z"/><path class="cls-2" d="M.66,106.18l64.64.14h682a14.93,14.93,0,0,1,2.31.32v.91H609.51q-58,0-116,0-60.76,0-121.54,0-61.16,0-122.29,0-57.45,0-114.9,0H12.49c-3.94,0-7.87.1-11.81.15Z"/><path class="cls-2" d="M.66,432.36h749v.69H.63Z"/><path class="cls-2" d="M.66,112.09H746.44a6.16,6.16,0,0,1,3.23.72H.66Z"/><path class="cls-2" d="M.66,140.2q42.3,0,84.6.1H749.17v.53H144.45q-71.86,0-143.74.13Z"/><path class="cls-2" d="M.66,145.38l65,.14H747.94A1.31,1.31,0,0,1,749,146H4.34c-1.22,0-2.45.11-3.68.17Z"/><path class="cls-2" d="M.66,156.47q55.28,0,110.55.09H749.33v.61H115.26l-114.6.05Z"/><path class="cls-2" d="M.66,183.84l91.27.09h655.6a2.51,2.51,0,0,1,1.78.58H23.2c-7.52,0-15,.05-22.54.08Z"/><path class="cls-2" d="M.66,189.76q65.61,0,131.22.05H747a4.33,4.33,0,0,1,2.51.62H84.56q-42,0-83.9.08Z"/><path class="cls-2" d="M.66,200.11c15,.08,30.06.21,45.08.21H748.93v.36H4.3c-1.23,0-2.45.13-3.68.2Z"/><path class="cls-2" d="M.66,228.22c19.45.05,38.9.13,58.35.14H722.37c8.86,0,17.71,0,26.57.45H49.41c-16.25,0-32.5.09-48.75.14Z"/><path class="cls-2" d="M.66,233.4h749v.73H.66Z"/><path class="cls-2" d="M.66,261.5l97.92.08H723.07c8.73,0,17.45,0,26.18.55H71.61c-23.65,0-47.3.08-70.95.12Z"/><path class="cls-2" d="M.66,266.68c23.77,0,47.55.12,71.33.12H749.1v.51H18.76c-6,0-12.07.09-18.1.14Z"/><path class="cls-2" d="M.66,277.78q42.33,0,84.65.11H749.24v.56H101.57q-50.46,0-100.91.07Z"/><path class="cls-2" d="M.66,305.88l78,.11h666.6a10.06,10.06,0,0,1,4,.55H2.87a20.41,20.41,0,0,0-2.21.08Z"/><path class="cls-2" d="M.66,311.06h746.4a4.2,4.2,0,0,1,2.51.66H.67Z"/><path class="cls-2" d="M.66,339.17l58,.15H652.39c32.14,0,64.28,0,96.43.44H483.31q-110.51,0-221-.07-93.87,0-187.74.07-34.74,0-69.48-.05c-1.47,0-2.95.14-4.42.22Z"/><path class="cls-2" d="M.66,355.44H749.57v.69H124.13q-61.74,0-123.47.05Z"/><path class="cls-2" d="M.66,382.8q58.76,0,117.52.07H747.55a2.39,2.39,0,0,1,1.78.63H51.66c-17,0-34,.07-51,.1Z"/><path class="cls-2" d="M.66,388.72q42.51,0,85,.09H749.19v.55H19.13c-6.15,0-12.31.07-18.47.11Z"/><path class="cls-2" d="M.66,399.08c21.56.05,43.13.14,64.69.14H749.21v.49H19.5c-6.28,0-12.56.07-18.84.11Z"/><path class="cls-2" d="M.66,427.18l71.31.13H749.21v.52H46.11c-15.15,0-30.3.07-45.44.1Z"/><path class="cls-2" d="M.66,18.16,72,18.28H711.8c12.42,0,24.85,0,37.27.48H23.56c-7.64,0-15.27.09-22.9.14Z"/><path class="cls-2" d="M.66,23.34c17.24.06,34.48.15,51.72.17H744.89a13.81,13.81,0,0,1,4.05.4H6.19c-1.84,0-3.69.11-5.53.17Z"/><path class="cls-2" d="M.66,34.43q71.9,0,143.81.06h605v.65H.7Z"/><path class="cls-2" d="M.66,78.81c19.46.06,38.93.17,58.39.17H749.11v.43H39.46c-12.94,0-25.87.08-38.8.13Z"/><path class="cls-2" d="M.66,67.72q52.31,0,104.62.07h644v.6H5.09c-1.48,0-3,.07-4.43.11Z"/><path class="cls-2" d="M.66,62.54q52.29,0,104.58.06H747.56a2.39,2.39,0,0,1,1.78.61H71.61q-35.47,0-70.95.1Z"/><path class="cls-2" d="M.66,322.15c12.81.09,25.61.25,38.42.26H339.25v.25H6.19c-1.85,0-3.69.15-5.53.22Z"/><path class="cls-2" d="M.66,344.34c15,.07,30,.19,45,.2H155.33c8.61,0,17.21,0,25.82.34H29.45c-9.6,0-19.2.12-28.79.18Z"/><path class="cls-2" d="M748.82,322.63H488.3v-.14H748.71Z"/><path class="cls-2" d="M484.13,322.63H343.33v-.14H484Z"/><path class="cls-2" d="M501.45,344.59h141v.17H501.58Z"/><ellipse class="cls-2" cx="413.75" cy="344.71" rx="99.86" ry="0.12"/><path class="cls-2" d="M191.63,344.59h141v.19h-141Z"/><path class="cls-2" d="M46.58,349.76h128V350H46.42Z"/><path class="cls-2" d="M326.13,350h-128v-.2H326Z"/><ellipse class="cls-2" cx="568.7" cy="349.89" rx="85.97" ry="0.15"/><ellipse class="cls-2" cx="417.07" cy="349.89" rx="85.96" ry="0.14"/><ellipse class="cls-2" cx="697.71" cy="344.73" rx="72.49" ry="0.13"/><ellipse class="cls-2" cx="704.27" cy="349.89" rx="63.28" ry="0.15"/><path class="cls-2" d="M666.55,217.38h55.21v.2H666.42Z"/><path class="cls-2" d="M514.94,217.32h48.33v.19h-48.5Z"/><path class="cls-2" d="M477.59,217.57H428.91v-.2h48.64Z"/><path class="cls-2" d="M356.66,217.32H405v.19H356.5Z"/><ellipse class="cls-2" cx="295.09" cy="217.48" rx="34.38" ry="0.1"/><path class="cls-2" d="M253.51,217.58H204.84v-.19h48.54Z"/><ellipse class="cls-2" cx="143.3" cy="217.45" rx="34.31" ry="0.1"/><path class="cls-2" d="M587.38,217.38h42v.19h-42Z"/><path class="cls-2" d="M95.08,217.57H53.16v-.2H95.09Z"/><ellipse class="cls-2" cx="687.49" cy="29.64" rx="20.47" ry="0.13"/><path class="cls-2" d="M290.54,29.5h22.31v.21H290.7Z"/><ellipse class="cls-2" cx="380.85" cy="29.63" rx="15.78" ry="0.13"/><path class="cls-2" d="M233.66,29.74h-22.3v-.21h22.22Z"/><path class="cls-2" d="M464.43,29.74H442.12v-.21h22.23Z"/><path class="cls-2" d="M521.31,29.5h22.3v.21H521.48Z"/><ellipse class="cls-2" cx="690.59" cy="223.38" rx="15.35" ry="0.09"/><path class="cls-2" d="M442.54,223.3h21.71v.16H442.49Z"/><path class="cls-2" d="M391.65,223.53H370v-.15h21.82Z"/><path class="cls-2" d="M154.25,223.48H132.4v-.16h22Z"/><path class="cls-2" d="M132.39,29.51h22v.17H132.5Z"/><path class="cls-2" d="M82,29.73H59.69v-.21H82Z"/><ellipse class="cls-2" cx="690.82" cy="1.49" rx="15.03" ry="0.04"/><ellipse class="cls-2" cx="146.75" cy="1.55" rx="10.59" ry="0.05"/><path class="cls-2" d="M600.59,29.53h15.54v.21H600.47Z"/><path class="cls-2" d="M600.59,223.31h15.07v.13H600.59Z"/><path class="cls-2" d="M528.29,223.29h15v.15H528.12Z"/><ellipse class="cls-2" cx="298.43" cy="223.43" rx="10.84" ry="0.1"/><path class="cls-2" d="M218.3,223.3h15.1v.17H218.28Z"/><path class="cls-2" d="M75.17,223.48H59.87v-.16H75.19Z"/><ellipse class="cls-2" cx="146.74" cy="96.17" rx="10.83" ry="0.11"/><ellipse class="cls-2" cx="225.88" cy="96.17" rx="10.75" ry="0.09"/><ellipse class="cls-2" cx="298.37" cy="96.17" rx="10.83" ry="0.11"/><path class="cls-2" d="M385,96.27H370v-.16h15.12Z"/><ellipse class="cls-2" cx="456.65" cy="96.17" rx="10.85" ry="0.11"/><ellipse class="cls-2" cx="687.42" cy="96.17" rx="10.85" ry="0.11"/><path class="cls-2" d="M615.77,96.27h-15v-.13h15Z"/><path class="cls-2" d="M528.3,96.06h15v.16h-15Z"/></g></svg>