<svg id="Layer_1" data-name="Layer 1" xmlns="http://www.w3.org/2000/svg" viewBox="0 0 750 440"><defs><style>.cls-1{opacity:0.3;}.cls-2{fill:#fff;}</style></defs><title>halftone_mobileArtboard 1</title><g class="cls-1"><path class="cls-2" d="M.66,156.47V146.12c1.23-.06,2.46-.17,3.68-.17H137.76l148.94,0,141.18,0,142.29,0q74.46,0,148.94,0H749a1.31,1.31,0,0,0-1.08-.46H201.7q-68,0-136,0-32.5,0-65-.14v-4.44q71.87-.06,143.74-.13,71.15,0,142.28,0l141.16,0,142.28,0h179v-.53H85.26q-42.3,0-84.6-.1V112.83h749a6.12,6.12,0,0,0-3.23-.72q-185.06,0-370.12,0l-375.66,0v-4.43c3.94,0,7.87-.15,11.81-.15q61.16,0,122.29,0,57.45,0,114.9-.05,61.14,0,122.29.05,60.76,0,121.54-.05,58,0,116,.05H749.59l0-.91a15.27,15.27,0,0,0-2.31-.32q-27.7,0-55.42,0H168.39q-51.55,0-103.09,0-32.32,0-64.64-.14V79.55c12.93,0,25.86-.13,38.8-.13q77.61,0,155.24,0H749.1V79H333.73Q196.39,79,59.05,79c-19.46,0-38.93-.11-58.39-.17V68.46c1.47,0,2.95-.11,4.43-.11q174.69,0,349.37,0,186.35,0,372.67,0h22.16v-.6h-644Q53,67.78.66,67.72V63.28q35.47-.06,71-.1,81.14,0,162.26,0,80.38,0,160.77,0,81.14,0,162.25,0H749.34a2.41,2.41,0,0,0-1.78-.61H105.24Q53,62.59.66,62.54V35.17l75,0,207,0,214.77,0h252v-.65h-605q-71.91,0-143.81-.06V24.08c1.84-.06,3.69-.17,5.53-.17l109.75,0,121.21,0H480.67l116.41,0H748.94a13.94,13.94,0,0,0-4.05-.4H289.62l-120.83,0q-58.2,0-116.41,0c-17.24,0-34.48-.11-51.72-.17V18.9c7.63,0,15.26-.14,22.9-.14q67.07,0,134.13,0l135.61,0,134.5,0,142.64,0H749.07c-12.42-.48-24.85-.48-37.27-.48l-101.22,0-109.73,0H175q-51.54,0-103.08,0-35.64,0-71.29-.12V.41H751.4V441.24H.66V433.1l298,0h451v-.69H249.85q-124.6,0-249.19,0v-4.44c15.14,0,30.29-.1,45.44-.1q54.5,0,109,0h594.1v-.52H181.71q-54.87,0-109.74,0-35.65,0-71.31-.13V399.82c6.28,0,12.56-.11,18.84-.11H181.42l167.47,0,175.59,0H749.21v-.49H65.35c-21.56,0-43.13-.09-64.69-.14v-9.62c6.16,0,12.32-.11,18.47-.11H749.19v-.55H260.9q-87.61,0-175.22,0-42.51,0-85-.09v-5.18c17,0,34-.1,51-.1q84.27,0,168.54,0,83.91,0,167.8,0,81.13,0,162.27,0H749.33a2.38,2.38,0,0,0-1.78-.63H118.18q-58.77,0-117.52-.07V356.18q61.73,0,123.47-.05,140.3,0,280.6,0H749.58v-.69h-4.67l-200,0-333.87,0-210.37,0V345.08c9.59-.06,19.19-.17,28.79-.18q51.14,0,102.28,0h49.45c-8.61-.34-17.21-.34-25.82-.34q-54.83,0-109.67,0c-15,0-30-.13-45-.2v-4.43c1.47-.08,2.95-.22,4.42-.22q34.74,0,69.48.05,93.87,0,187.74-.07,110.51,0,221,.07H748.82c-32.15-.44-64.29-.44-96.43-.44H447.71l-94.59,0H155.46q-48.41,0-96.8,0-29,0-58-.15V322.89c1.84-.07,3.68-.22,5.53-.22H339.25v-.25H300.49q-130.71,0-261.41,0c-12.81,0-25.61-.17-38.42-.26V311.8q30.67,0,61.36,0l339,0,320.15,0h28.39a4.22,4.22,0,0,0-2.51-.66H171.45l-170.79,0v-4.44c.74,0,1.47-.08,2.21-.08H95.62l121.21,0H340.25q63.57,0,127.12,0l122.68,0H749.26a10.07,10.07,0,0,0-4-.55l-62.08,0-122.69,0-121.2,0H315.86l-121.2,0q-58,0-116,0-39,0-78-.11V278.51q50.45,0,100.91-.07l207.36,0q100.92,0,201.83,0H749.25v-.56H85.31q-42.33,0-84.65-.11V267.42c6-.05,12.06-.14,18.1-.14l175.2,0,167.8,0,181.86,0H749.11v-.51H234.25q-81.13,0-162.26,0c-23.78,0-47.56-.08-71.33-.12v-4.44c23.65,0,47.3-.12,71-.12q80.94,0,161.88,0,80.56,0,161.13,0,81.12,0,162.25,0H749.25c-8.73-.55-17.45-.55-26.18-.55q-64.67,0-129.33,0-63.93,0-127.85,0-61.9,0-123.8,0H215l-116.4,0L.66,261.5V234.14h749v-.73H.66V229c16.25-.05,32.5-.13,48.75-.14q47.82,0,95.66,0H432.43q47.26,0,94.55,0l96,0H748.94c-8.86-.45-17.71-.45-26.57-.45H148.76q-44.86,0-89.75,0c-19.45,0-38.9-.09-58.35-.14V200.85c1.23-.07,2.45-.2,3.68-.2l81,0H748.94v-.36H326.37q-140.31,0-280.63,0c-15,0-30.05-.13-45.08-.21V190.5q42,0,83.9-.08l320.13,0H749.51a4.32,4.32,0,0,0-2.51-.62H131.88q-65.61,0-131.22-.05v-5.18c7.51,0,15-.07,22.54-.08l147.45,0,148.93,0H749.31a2.51,2.51,0,0,0-1.78-.58H215q-61.53,0-123.07,0L.66,183.84V157.21l114.6-.05H749.35v-.61h-4l-312.44,0H111.21Q55.94,156.56.66,156.47ZM748.82,322.63l-.11-.14H488.3v.14Zm-264.69,0-.13-.14H343.33v.14Zm17.32,22,.13.17H642.49v-.17Zm-158.31,0v.17H484.37v-.17Zm-151.51,0,0,.19H332.66v-.19Zm-145,5.17-.16.22H174.57v-.22Zm279.55.27-.06-.2H198.17v.2Zm181.78-.24v.2H629.5v-.2Zm-151.62,0v.2H477.86v-.2Zm392.68-5v-.18H646.45v.18Zm-89.44,5V350H749v-.22Zm7-132.4-.13.2h55.34v-.2Zm-151.61-.06-.16.19h48.5v-.19Zm-37.35.25,0-.2H428.91v.2Zm-120.93-.25-.16.19H405v-.19Zm-37.26.23v-.14H270.78v.14Zm-65.89,0-.13-.19H204.84v.19ZM119,217.38v.14h48.52v-.14Zm468.34,0,0,.19h42v-.19Zm-492.3.19v-.2H53.16v.2ZM702,29.73v-.18H673v.18ZM290.54,29.5l.16.21h22.15V29.5Zm79.15,0v.19H392v-.19Zm-136,.21-.08-.21H211.36v.21Zm230.77,0-.08-.21H442.12v.21Zm56.88-.24.17.21h22.13V29.5ZM679.74,223.31v.13h21.71v-.13Zm-237.2,0-.05.16h21.76v-.16Zm-50.89.23.18-.15H370v.15Zm-237.4-.05.14-.16h-22v.16Zm-21.86-194,.11.17h21.91v-.17ZM82,29.73v-.21H59.69v.21ZM680.19,1.46v.06h21.26V1.46Zm-540.92.05v.07h15V1.51Zm461.32,28-.12.21h15.66v-.21Zm0,193.78v.13h15.07v-.13Zm-72.3,0-.17.15h15.17v-.15Zm-222.2.21v-.15H290.76v.15Zm-87.79-.2,0,.17H233.4v-.17Zm-143.13.18,0-.16H59.87v.16ZM139.08,96.09v.15h15.31v-.15Zm94.4.14V96.1H218.27v.13Zm57.23-.14v.15H306v-.15Zm94.25.18.1-.16H369.94v.16Zm79.36,0v-.16H449v.16Zm230.77,0v-.16H679.74v.16Zm-79.32,0v-.13h-15v.13Zm-87.47-.21,0,.16h15.07v-.16Z"/><path d="M.66,106.18q32.33.07,64.64.14,51.54,0,103.09,0h523.5q27.72,0,55.42,0a15.27,15.27,0,0,1,2.31.32l0,.91H609.51q-58,0-116-.05-60.76,0-121.54.05-61.15,0-122.29-.05-57.45,0-114.9.05-61.14,0-122.29,0c-3.94,0-7.87.1-11.81.15Z"/><path d="M.66,432.36q124.59,0,249.19,0H749.63v.69h-451l-298,0Z"/><path d="M.66,112.09l375.66,0q185.07,0,370.12,0a6.12,6.12,0,0,1,3.23.72H.66Z"/><path d="M.66,140.2q42.3,0,84.6.1H749.17v.53h-179l-142.28,0-141.16,0q-71.15,0-142.28,0-71.87,0-143.74.13Z"/><path d="M.66,145.38q32.52.08,65,.14,68,0,136,0H747.94A1.31,1.31,0,0,1,749,146H719.11q-74.48,0-148.94,0l-142.29,0L286.7,146l-148.94,0H4.34c-1.22,0-2.45.11-3.68.17Z"/><path d="M.66,156.47q55.28,0,110.55.09H432.89l312.44,0h4v.61H115.26l-114.6.05Z"/><path d="M.66,183.84l91.27.09q61.55,0,123.07,0H747.53a2.51,2.51,0,0,1,1.78.58H319.58l-148.93,0-147.45,0c-7.52,0-15,.05-22.54.08Z"/><path d="M.66,189.76q65.61,0,131.22.05H747a4.32,4.32,0,0,1,2.51.62H404.69l-320.13,0q-42,0-83.9.08Z"/><path d="M.66,200.11c15,.08,30.06.21,45.08.21q140.31,0,280.63,0H748.93v.36H85.3l-81,0c-1.23,0-2.45.13-3.68.2Z"/><path d="M.66,228.22c19.45.05,38.9.13,58.35.14q44.88,0,89.75,0H722.37c8.86,0,17.71,0,26.57.45H623l-96,0q-47.28,0-94.55,0H145.07q-47.83,0-95.66,0c-16.25,0-32.5.09-48.75.14Z"/><path d="M.66,233.4h749v.73H.66Z"/><path d="M.66,261.5l97.92.08,116.4,0H342.09q61.91,0,123.8,0,63.92,0,127.85,0,64.66,0,129.33,0c8.73,0,17.45,0,26.18.55H556.87q-81.14,0-162.25,0-80.56,0-161.13,0-80.94,0-161.88,0c-23.65,0-47.3.08-70.95.12Z"/><path d="M.66,266.68c23.77,0,47.55.12,71.33.12q81.14,0,162.26,0H749.1v.51H543.62l-181.86,0-167.8,0-175.2,0c-6,0-12.07.09-18.1.14Z"/><path d="M.66,277.78q42.33,0,84.65.11H749.24v.56H510.76q-100.92,0-201.83,0l-207.36,0q-50.46,0-100.91.07Z"/><path d="M.66,305.88q39,.06,78,.11,58,0,116,0l121.2,0H439.29l121.2,0,122.69,0,62.08,0a10.07,10.07,0,0,1,4,.55H590.05l-122.68,0q-63.56,0-127.12,0H216.83l-121.21,0H2.87c-.74,0-1.47,0-2.21.08Z"/><path d="M.66,311.06l170.79,0H747.06a4.22,4.22,0,0,1,2.51.66H721.18l-320.15,0-339,0q-30.68,0-61.36,0Z"/><path d="M.66,339.17q29,.07,58,.15,48.41,0,96.8,0H353.12l94.59,0H652.39c32.14,0,64.28,0,96.43.44H483.31q-110.51,0-221-.07-93.87,0-187.74.07-34.74,0-69.48-.05c-1.47,0-2.95.14-4.42.22Z"/><path d="M.66,355.44l210.37,0,333.87,0,200,0h4.67v.69H404.73q-140.31,0-280.6,0-61.74,0-123.47.05Z"/><path d="M.66,382.8q58.76,0,117.52.07H747.55a2.38,2.38,0,0,1,1.78.63H550.27q-81.13,0-162.27,0-83.89,0-167.8,0-84.27,0-168.54,0c-17,0-34,.07-51,.1Z"/><path d="M.66,388.72q42.51,0,85,.09,87.6,0,175.22,0H749.19v.55H19.13c-6.15,0-12.31.07-18.47.11Z"/><path d="M.66,399.08c21.56.05,43.13.14,64.69.14H749.21v.49H524.48l-175.59,0-167.47,0H19.5c-6.28,0-12.56.07-18.84.11Z"/><path d="M.66,427.18q35.66.07,71.31.13,54.87,0,109.74,0h567.5v.52H155.11q-54.51,0-109,0c-15.15,0-30.3.07-45.44.1Z"/><path d="M.66,18.16q35.64.06,71.29.12,51.54,0,103.08,0H500.85l109.73,0,101.22,0c12.42,0,24.85,0,37.27.48H570.44l-142.64,0-134.5,0-135.61,0q-67.06,0-134.13,0c-7.64,0-15.27.09-22.9.14Z"/><path d="M.66,23.34c17.24.06,34.48.15,51.72.17q58.2,0,116.41,0l120.83,0H744.89a13.94,13.94,0,0,1,4.05.4H597.08l-116.41,0H237.15l-121.21,0-109.75,0c-1.84,0-3.69.11-5.53.17Z"/><path d="M.66,34.43q71.9,0,143.81.06h605v.65h-252l-214.77,0-207,0-75,0Z"/><path d="M.66,78.81c19.46.06,38.93.17,58.39.17q137.34,0,274.68,0H749.11v.43H194.7q-77.62,0-155.24,0c-12.94,0-25.87.08-38.8.13Z"/><path d="M.66,67.72q52.31,0,104.62.07h644v.6H727.13q-186.33,0-372.67,0-174.67,0-349.37,0c-1.48,0-3,.07-4.43.11Z"/><path d="M.66,62.54q52.29,0,104.58.06H747.56a2.41,2.41,0,0,1,1.78.61H556.89q-81.12,0-162.25,0-80.38,0-160.77,0-81.13,0-162.26,0-35.47,0-70.95.1Z"/><path d="M.66,322.15c12.81.09,25.61.25,38.42.26q130.71,0,261.41,0h38.76v.25H6.19c-1.85,0-3.69.15-5.53.22Z"/><path d="M.66,344.34c15,.07,30,.19,45,.2q54.84,0,109.67,0c8.61,0,17.21,0,25.82.34H131.73q-51.15,0-102.28,0c-9.6,0-19.2.12-28.79.18Z"/><path d="M748.82,322.63H488.3v-.14H748.71Z"/><path d="M484.13,322.63H343.33v-.14H484Z"/><path d="M501.45,344.59h141v.17H501.58Z"/><ellipse cx="413.75" cy="344.71" rx="99.86" ry="0.12"/><path d="M191.63,344.59h141v.19H191.58Z"/><path d="M46.58,349.76h128V350H46.42Z"/><path d="M326.13,350h-128v-.2h127.9Z"/><ellipse cx="568.7" cy="349.89" rx="85.97" ry="0.15"/><ellipse cx="417.07" cy="349.89" rx="85.96" ry="0.14"/><ellipse cx="697.71" cy="344.73" rx="72.49" ry="0.13"/><ellipse cx="704.27" cy="349.89" rx="63.28" ry="0.15"/><path d="M666.55,217.38h55.21v.2H666.42Z"/><path d="M514.94,217.32h48.33v.19h-48.5Z"/><path d="M477.59,217.57H428.91v-.2h48.64Z"/><path d="M356.66,217.32H405v.19H356.5Z"/><ellipse cx="295.09" cy="217.48" rx="34.38" ry="0.1"/><path d="M253.51,217.58H204.84v-.19h48.54Z"/><ellipse cx="143.3" cy="217.45" rx="34.31" ry="0.1"/><path d="M587.38,217.38h42v.19h-42Z"/><path d="M95.08,217.57H53.16v-.2H95.09Z"/><ellipse cx="687.49" cy="29.64" rx="20.47" ry="0.13"/><path d="M290.54,29.5h22.31v.21H290.7Z"/><ellipse cx="380.85" cy="29.63" rx="15.78" ry="0.13"/><path d="M233.66,29.74h-22.3v-.21h22.22Z"/><path d="M464.43,29.74H442.12v-.21h22.23Z"/><path d="M521.31,29.5h22.3v.21H521.48Z"/><ellipse cx="690.59" cy="223.38" rx="15.35" ry="0.09"/><path d="M442.54,223.3h21.71v.16H442.49Z"/><path d="M391.65,223.53H370v-.15h21.82Z"/><path d="M154.25,223.48H132.4v-.16h22Z"/><path d="M132.39,29.51h22v.17H132.5Z"/><path d="M82,29.73H59.69v-.21H82Z"/><ellipse cx="690.82" cy="1.49" rx="15.03" ry="0.04"/><ellipse cx="146.75" cy="1.55" rx="10.59" ry="0.05"/><path d="M600.59,29.53h15.54v.21H600.47Z"/><path d="M600.59,223.31h15.07v.13H600.59Z"/><path d="M528.29,223.29h15v.15H528.12Z"/><ellipse cx="298.43" cy="223.43" rx="10.84" ry="0.1"/><path d="M218.3,223.3h15.1v.17H218.28Z"/><path d="M75.17,223.48H59.87v-.16H75.19Z"/><ellipse cx="146.74" cy="96.17" rx="10.83" ry="0.11"/><ellipse cx="225.88" cy="96.17" rx="10.75" ry="0.09"/><ellipse cx="298.37" cy="96.17" rx="10.83" ry="0.11"/><path d="M385,96.27h-15v-.16h15.12Z"/><ellipse cx="456.65" cy="96.17" rx="10.85" ry="0.11"/><ellipse cx="687.42" cy="96.17" rx="10.85" ry="0.11"/><path d="M615.77,96.27h-15v-.13h15Z"/><path d="M528.3,96.06h15v.16H528.25Z"/></g></svg>