<svg id="Layer_1" data-name="Layer 1" xmlns="http://www.w3.org/2000/svg" viewBox="0 0 1920 1080"><defs><style>.cls-1{opacity:0.3;}.cls-2{fill:#fff;}</style></defs><title>halftone_desktop</title><g class="cls-1"><path class="cls-2" d="M-184.34,476.47V466.12c1.23-.06,2.46-.17,3.68-.17H-47.24l148.94,0,141.18,0,142.29,0H564a1.31,1.31,0,0,0-1.08-.46H16.7q-68,0-136,0-32.5,0-65-.14v-4.44q71.86-.06,143.74-.13,71.15,0,142.28,0l141.16,0,142.28,0h179v-.53H-99.74q-42.3,0-84.6-.1V432.83h749a6.12,6.12,0,0,0-3.23-.72H191.32l-375.66,0v-4.43c3.94-.05,7.87-.15,11.81-.15q61.16,0,122.29,0,57.45,0,114.9-.05,61.14,0,122.29.05,60.77,0,121.54-.05,58,0,116,.05H564.59l0-.91a15.27,15.27,0,0,0-2.31-.32q-27.7,0-55.42,0H-16.61q-51.55,0-103.09,0-32.33,0-64.64-.14V399.55c12.93-.05,25.86-.13,38.8-.13q77.61,0,155.24,0H564.1V399H148.73q-137.34,0-274.68,0c-19.46,0-38.93-.11-58.39-.17V388.46c1.47,0,3-.11,4.43-.11q174.69,0,349.37,0,186.34,0,372.67.05h22.16v-.6h-644q-52.31,0-104.62-.07v-4.44q35.47-.06,71-.1,81.14,0,162.26,0,80.38,0,160.77,0,81.14,0,162.25,0t162.25,0h30.2a2.41,2.41,0,0,0-1.78-.61q-63.75,0-127.5,0H-79.76l-104.58-.06V355.17l75,0,207,0,214.77,0h252v-.65h-605q-71.91,0-143.81-.06V344.08c1.84-.06,3.69-.17,5.53-.17l109.75,0,121.21,0H295.67l116.41,0H563.94a13.94,13.94,0,0,0-4.05-.4H104.62l-120.83,0q-58.2,0-116.41,0c-17.24,0-34.48-.11-51.72-.17V338.9c7.63,0,15.26-.14,22.9-.14q67.07,0,134.13,0l135.61,0,134.5,0,142.64,0H564.07c-12.42-.48-24.85-.48-37.27-.48l-101.22,0-109.73,0H-10q-51.54,0-103.08,0-35.64,0-71.29-.12V320.41H566.4V761.24H-184.34V753.1l298,0h451v-.69H64.85q-124.6,0-249.19,0v-4.44c15.14,0,30.29-.1,45.44-.1q54.5,0,109,0,57.63,0,115.28,0H564.21v-.52H-3.29q-54.87,0-109.74,0-35.65,0-71.31-.13V719.82c6.28,0,12.56-.11,18.84-.11H-3.58l167.47,0,175.59,0H564.21v-.49H-119.65c-21.56,0-43.13-.09-64.69-.14v-9.62c6.16,0,12.32-.11,18.47-.11H564.19v-.55H75.9q-87.61,0-175.22,0-42.51,0-85-.09v-5.18c17,0,34-.1,51-.1q84.27,0,168.54,0,83.91,0,167.8,0,81.13,0,162.27,0H564.33a2.38,2.38,0,0,0-1.78-.63H-66.82q-58.77,0-117.52-.07V676.18q61.73,0,123.47,0,140.3,0,280.6,0H564.58v-.69h-4.67l-200,0L26,675.47l-210.37,0V665.08c9.59-.06,19.19-.17,28.79-.18q51.14,0,102.28,0H-3.82c-8.61-.34-17.21-.34-25.82-.34q-54.82,0-109.67,0c-15,0-30-.13-45-.2v-4.43c1.47-.08,3-.22,4.42-.22q34.74,0,69.48,0,93.87,0,187.74-.07,110.51,0,221,.07H563.82c-32.15-.44-64.29-.44-96.43-.44H262.71l-94.59,0H-29.54q-48.4,0-96.8,0-29,0-58-.15V642.89c1.84-.07,3.68-.22,5.53-.22H154.25v-.25H115.49q-130.71,0-261.41,0c-12.81,0-25.61-.17-38.42-.26V631.8q30.68,0,61.36,0l339,0,320.15,0h28.39a4.22,4.22,0,0,0-2.51-.66H-13.55l-170.79,0v-4.44c.74,0,1.47-.08,2.21-.08h92.75l121.21,0H155.25q63.57,0,127.12,0l122.68,0H564.26a10.07,10.07,0,0,0-4-.55l-62.08,0-122.69,0-121.2,0H130.86L9.66,626q-58,0-116,0-39,0-78-.11V598.51q50.44,0,100.91-.07,103.68,0,207.36,0,100.92,0,201.83,0H564.25v-.56H-99.69q-42.33,0-84.65-.11V587.42c6,0,12.06-.14,18.1-.14l175.2,0,167.8,0,181.86,0H564.11v-.51H49.25q-81.14,0-162.26,0c-23.78,0-47.56-.08-71.33-.12v-4.44c23.65,0,47.3-.12,71-.12q80.94,0,161.88,0,80.57,0,161.13,0,81.12,0,162.25,0H564.25c-8.73-.55-17.45-.55-26.18-.55q-64.67,0-129.33,0-63.93,0-127.85,0-61.9,0-123.8,0H30l-116.4,0-97.92-.08V554.14h749v-.73h-749V549c16.25-.05,32.5-.13,48.75-.14q47.82,0,95.66,0H342l96,0H563.94c-8.86-.45-17.71-.45-26.57-.45H-36.24q-44.87,0-89.75,0c-19.45,0-38.9-.09-58.35-.14V520.85c1.23-.07,2.45-.2,3.68-.2l81,0H563.94v-.36H141.37q-140.31,0-280.63,0c-15,0-30.05-.13-45.08-.21V510.5q42,0,83.9-.08l320.13,0H564.51a4.32,4.32,0,0,0-2.51-.62H-53.12q-65.61,0-131.22-.05v-5.18c7.51,0,15-.07,22.54-.08l147.45,0,148.93,0H564.31a2.51,2.51,0,0,0-1.78-.58H30q-61.53,0-123.07,0l-91.27-.09V477.21l114.6,0q97.23,0,194.46,0H564.35v-.61h-4l-312.44,0H-73.79Q-129.06,476.56-184.34,476.47ZM563.82,642.63l-.11-.14H303.3v.14Zm-264.69,0-.13-.14H158.33v.14Zm17.32,22,.13.17H457.49v-.17Zm-158.31,0v.17H299.37v-.17Zm-151.51,0,0,.19H147.66v-.19Zm-145,5.17-.16.22H-10.43v-.22Zm279.55.27-.06-.2H13.17v.2Zm181.78-.24v.2H444.5v-.2Zm-151.62,0v.2H292.86v-.2Zm392.68-5v-.18H461.45v.18Zm-89.44,5V670H564v-.22Zm7-132.4-.13.2h55.34v-.2Zm-151.61-.06-.16.19h48.5v-.19Zm-37.35.25,0-.2H243.91v.2Zm-120.93-.25-.16.19H220v-.19Zm-37.26.23v-.14H85.78v.14Zm-65.89,0-.13-.19H19.84v.19ZM-66,537.38v.14h48.52v-.14Zm468.34,0-.05.19h42v-.19Zm-492.3.19v-.2h-41.93v.2ZM517,349.73v-.18H488v.18Zm-411.42-.23.16.21h22.15v-.21Zm79.15,0v.19H207v-.19Zm-136,.21-.08-.21H26.36v.21Zm230.77,0-.08-.21H257.12v.21Zm56.88-.24.17.21h22.13v-.21ZM494.74,543.31v.13h21.71v-.13Zm-237.2,0-.05.16h21.76v-.16Zm-50.89.23.18-.15H185v.15Zm-237.4,0,.14-.16h-22v.16Zm-21.86-194,.11.17h21.91v-.17Zm-50.4.22v-.21h-22.29v.21Zm598.2-28.27v.06h21.26v-.06Zm-540.92.05v.07h15v-.07Zm461.32,28-.12.21h15.66v-.21Zm0,193.78v.13h15.07v-.13Zm-72.3,0-.17.15h15.17v-.15Zm-222.2.21v-.15H105.76v.15Zm-87.79-.2,0,.17H48.4v-.17Zm-143.13.18,0-.16h-15.32v.16Zm63.91-127.39v.15h15.31v-.15Zm94.4.14v-.13H33.27v.13Zm57.23-.14v.15H121v-.15Zm94.25.18.1-.16H184.94v.16Zm79.36,0v-.16H264v.16Zm230.77,0v-.16H494.74v.16Zm-79.32,0v-.13h-15v.13Zm-87.47-.21-.05.16h15.07v-.16Z"/><path d="M-184.34,426.18q32.33.07,64.64.14,51.54,0,103.09,0h523.5q27.72,0,55.42,0a15.27,15.27,0,0,1,2.31.32l0,.91H424.51q-58,0-116-.05-60.76,0-121.54.05-61.15,0-122.29-.05-57.45,0-114.9.05-61.14,0-122.29,0c-3.94,0-7.87.1-11.81.15Z"/><path d="M-184.34,752.36q124.59,0,249.19,0H564.63v.69h-451l-298,0Z"/><path d="M-184.34,432.09l375.66,0H561.44a6.12,6.12,0,0,1,3.23.72h-749Z"/><path d="M-184.34,460.2q42.3,0,84.6.1H564.17v.53h-179l-142.28,0-141.16,0q-71.15,0-142.28,0-71.87,0-143.74.13Z"/><path d="M-184.34,465.38q32.52.08,65,.14,68,0,136,0H562.94A1.31,1.31,0,0,1,564,466H385.17l-142.29,0L101.7,466l-148.94,0H-180.66c-1.22,0-2.45.11-3.68.17Z"/><path d="M-184.34,476.47q55.28,0,110.55.09H247.89l312.44,0h4v.61H124.72q-97.23,0-194.46,0l-114.6,0Z"/><path d="M-184.34,503.84l91.27.09q61.54,0,123.07,0H562.53a2.51,2.51,0,0,1,1.78.58H134.58l-148.93,0-147.45,0c-7.52,0-15,.05-22.54.08Z"/><path d="M-184.34,509.76q65.61,0,131.22.05H562a4.32,4.32,0,0,1,2.51.62H219.69l-320.13,0q-42,0-83.9.08Z"/><path d="M-184.34,520.11c15,.08,30.06.21,45.08.21q140.31,0,280.63,0H563.93v.36H-99.7l-81,0c-1.23,0-2.45.13-3.68.2Z"/><path d="M-184.34,548.22c19.45,0,38.9.13,58.35.14q44.88,0,89.75,0H537.37c8.86,0,17.71,0,26.57.45H438l-96,0H-39.93q-47.83,0-95.66,0c-16.25,0-32.5.09-48.75.14Z"/><path d="M-184.34,553.4h749v.73h-749Z"/><path d="M-184.34,581.5l97.92.08,116.4,0H157.09q61.91,0,123.8,0,63.92,0,127.85,0,64.67,0,129.33,0c8.73,0,17.45,0,26.18.55H371.87q-81.14,0-162.25,0-80.56,0-161.13,0-80.94,0-161.88,0c-23.65,0-47.3.08-70.95.12Z"/><path d="M-184.34,586.68c23.77,0,47.55.12,71.33.12q81.14,0,162.26,0H564.1v.51H358.62l-181.86,0L9,587.31l-175.2,0c-6,0-12.07.09-18.1.14Z"/><path d="M-184.34,597.78q42.33,0,84.65.11H564.24v.56H325.76q-100.92,0-201.83,0-103.68,0-207.36,0-50.46,0-100.91.07Z"/><path d="M-184.34,625.88q39,.06,78,.11,58,0,116,0l121.2,0H254.29l121.2,0,122.69,0,62.08,0a10.07,10.07,0,0,1,4,.55H405.05l-122.68,0q-63.56,0-127.12,0H31.83l-121.21,0h-92.75c-.74,0-1.47.05-2.21.08Z"/><path d="M-184.34,631.06l170.79,0H562.06a4.22,4.22,0,0,1,2.51.66H536.18l-320.15,0-339,0q-30.67,0-61.36,0Z"/><path d="M-184.34,659.17q29,.08,58,.15,48.41,0,96.8,0H168.12l94.59,0H467.39c32.14,0,64.28,0,96.43.44H298.31q-110.51,0-221-.07-93.87,0-187.74.07-34.74,0-69.48,0c-1.47,0-3,.14-4.42.22Z"/><path d="M-184.34,675.44l210.37,0,333.87,0,200,0h4.67v.69H219.73q-140.31,0-280.6,0-61.74,0-123.47,0Z"/><path d="M-184.34,702.8q58.76,0,117.52.07H562.55a2.38,2.38,0,0,1,1.78.63H365.27q-81.13,0-162.27,0-83.9,0-167.8,0-84.27,0-168.54,0c-17,0-34,.07-51,.1Z"/><path d="M-184.34,708.72q42.51,0,85,.09,87.6,0,175.22,0H564.19v.55H-165.87c-6.15,0-12.31.07-18.47.11Z"/><path d="M-184.34,719.08c21.56,0,43.13.14,64.69.14H564.21v.49H339.48l-175.59,0-167.47,0H-165.5c-6.28,0-12.56.07-18.84.11Z"/><path d="M-184.34,747.18q35.66.08,71.31.13,54.87,0,109.74,0h567.5v.52H85.39q-57.64,0-115.28,0-54.51,0-109,0c-15.15,0-30.3.07-45.44.1Z"/><path d="M-184.34,338.16q35.64.06,71.29.12,51.54,0,103.08,0H315.85l109.73,0,101.22,0c12.42,0,24.85,0,37.27.48H385.44l-142.64,0-134.5,0-135.61,0q-67.06,0-134.13,0c-7.64,0-15.27.09-22.9.14Z"/><path d="M-184.34,343.34c17.24.06,34.48.15,51.72.17q58.2,0,116.41,0l120.83,0H559.89a13.94,13.94,0,0,1,4.05.4H412.08l-116.41,0H52.15l-121.21,0-109.75,0c-1.84,0-3.69.11-5.53.17Z"/><path d="M-184.34,354.43q71.9,0,143.81.06h605v.65h-252l-214.77,0-207,0-75,0Z"/><path d="M-184.34,398.81c19.46.06,38.93.17,58.39.17q137.34,0,274.68,0H564.11v.43H9.7q-77.62,0-155.24,0c-12.94,0-25.87.08-38.8.13Z"/><path d="M-184.34,387.72q52.31,0,104.62.07h644v.6H542.13q-186.33,0-372.67-.05-174.67,0-349.37,0c-1.48,0-3,.07-4.43.11Z"/><path d="M-184.34,382.54l104.58.06H435.06q63.75,0,127.5,0a2.41,2.41,0,0,1,1.78.61h-30.2q-81.12,0-162.25,0t-162.25,0q-80.38,0-160.77,0-81.13,0-162.26,0-35.47,0-70.95.1Z"/><path d="M-184.34,642.15c12.81.09,25.61.25,38.42.26q130.71,0,261.41,0h38.76v.25H-178.81c-1.85,0-3.69.15-5.53.22Z"/><path d="M563.82,642.63H303.3v-.14H563.71Z"/><path d="M299.13,642.63H158.33v-.14H299Z"/><path d="M316.45,664.59h141v.17H316.58Z"/><ellipse cx="228.75" cy="664.71" rx="99.86" ry="0.12"/><path d="M6.63,664.59h141v.19H6.58Z"/><path d="M141.13,670h-128v-.2h127.9Z"/><ellipse cx="383.7" cy="669.89" rx="85.97" ry="0.15"/><ellipse cx="232.07" cy="669.89" rx="85.96" ry="0.14"/><ellipse cx="512.71" cy="664.73" rx="72.49" ry="0.13"/><ellipse cx="519.27" cy="669.89" rx="63.28" ry="0.15"/><path d="M481.55,537.38h55.21v.2H481.42Z"/><path d="M329.94,537.32h48.33v.19h-48.5Z"/><path d="M292.59,537.57H243.91v-.2h48.64Z"/><path d="M171.66,537.32H220v.19H171.5Z"/><ellipse cx="110.09" cy="537.48" rx="34.38" ry="0.1"/><path d="M68.51,537.58H19.84v-.19H68.38Z"/><path d="M402.38,537.38h42v.19h-42Z"/><ellipse cx="502.49" cy="349.64" rx="20.47" ry="0.13"/><path d="M105.54,349.5h22.31v.21H105.7Z"/><ellipse cx="195.85" cy="349.63" rx="15.78" ry="0.13"/><path d="M48.66,349.74H26.36v-.21H48.58Z"/><path d="M279.43,349.74H257.12v-.21h22.23Z"/><path d="M336.31,349.5h22.3v.21H336.48Z"/><ellipse cx="505.59" cy="543.38" rx="15.35" ry="0.09"/><path d="M257.54,543.3h21.71v.16H257.49Z"/><path d="M206.65,543.53H185v-.15h21.82Z"/><ellipse cx="505.82" cy="321.49" rx="15.03" ry="0.04"/><path d="M415.59,349.53h15.54v.21H415.47Z"/><path d="M415.59,543.31h15.07v.13H415.59Z"/><path d="M343.29,543.29h15v.15H343.12Z"/><ellipse cx="113.43" cy="543.43" rx="10.84" ry="0.1"/><path d="M33.3,543.3H48.4v.17H33.28Z"/><ellipse cx="40.88" cy="416.17" rx="10.75" ry="0.09"/><ellipse cx="113.37" cy="416.17" rx="10.83" ry="0.11"/><path d="M200,416.27h-15v-.16h15.12Z"/><ellipse cx="271.65" cy="416.17" rx="10.85" ry="0.11"/><ellipse cx="502.42" cy="416.17" rx="10.85" ry="0.11"/><path d="M430.77,416.27h-15v-.13h15Z"/><path d="M343.3,416.06h15v.16H343.25Z"/></g><g class="cls-1"><path class="cls-2" d="M1922.17,387v66.27q-66.21.11-132.41.2-163.65.06-327.28.06-165.54,0-331.08-.05l-327.28,0q-174.52,0-349,0l-361.34,0H5a3.36,3.36,0,0,0,2.67,1.44q169.8,0,339.59,0,171.67,0,343.36,0l333,0,342.41,0q166,0,332,.05,112.08,0,224.17.22v11.36q-246.56.09-493.09.17-325.59,0-651.17,0H4.83a6.21,6.21,0,0,0,4.54,1.59H996.53q291.51,0,583,0,171.32,0,342.62.15V493c-2.5.18-5,.52-7.5.52q-184.07,0-368.14.05H6.22c63.06.88,126.12.88,189.17.88l394.57,0,398.35,0h395.51q199.17,0,398.35,0c46.67,0,93.33.29,140,.44v66.28c-27.42.12-54.83.34-82.24.35q-122,.08-244,0-122.48,0-245,0-121.53,0-243,.08-123.89,0-247.78,0-121.53,0-243,0H5.37c20.77,1.17,41.53,1.17,62.3,1.17l245.88,0,244,0,245.9,0q121,0,242.09,0,123.42,0,246.83.06h244q122.94,0,245.89,0,70,.06,139.93.37v11.36q-347.34.06-694.67.1-607.6,0-1215.22,0H4.85l.08,1.8H1922.17v66.27q-48.72.07-97.43.15-164.15.08-328.29.1-165.09,0-330.18-.08-172.18,0-344.37.1-182.11,0-364.24-.11-191.1,0-382.21,0H5.26c.6,1.11,1.19,1.43,1.78,1.43q136.26.06,272.51.06H1350.66q182.14,0,364.3,0,103.61,0,207.21.24v11.36q-146.18.15-292.35.3-190.2.08-380.4,0H5.24c35.27,1.28,70.55,1.28,105.83,1.28q197.3,0,394.58,0l415.41,0q197.28,0,394.58,0,208.17,0,416.35,0,95.09,0,190.18.31v24.61c-3.15.09-6.29.27-9.44.27l-409.83,0-799.77,0q-345.94,0-691.88,0c-2.55,0-5.11.44-7.67.67l.17,2.45h8.72l306.61,0,467.49,0h462.76q215.76,0,431.53,0,120.66,0,241.31.21v66.27c-1.89.08-3.77.23-5.65.23q-123,0-245.94,0l-328.21,0-313.09,0H5.06c1.82,1.36,3.67,1.36,5.51,1.36q78,0,156.07-.08,149.92,0,299.85.08,162.69,0,325.38,0l315.92,0,310.24.05q157,0,314,0,95.06,0,190.11.26V765.7q-274.49.06-549,.1H4.72v1.63h7.36l711.79,0,738.29,0q230,0,460,.12v24.61c-2.82.22-5.64.62-8.45.62q-235.2.06-470.39,0H1250.39c55.82.66,111.64.66,167.45.66q199.2,0,398.4,0c35.31,0,70.62.37,105.93.57v39.76q-129.08.18-258.13.34-139.49.07-279,0-130,0-260,.1-132.39,0-264.78-.07-130.5,0-261,0-122.94,0-245.87.06-121.51,0-243,0H5.87c47.9,1,95.79,1,143.68,1q167,0,333.92.1,172.15,0,344.31,0H1157l311.21,0q165.54,0,331.07,0c41,0,82,.28,122.93.43v11.36q-87,.25-174,.5c-30.89.06-61.78,0-92.66,0,53.59.85,107.18.79,160.77.88,35.3,0,70.59.33,105.89.51v11.36q-61.43.21-122.85.42-55.26.11-110.52,0c36.84,1,73.68,1,110.52,1q61.42.12,122.85.42v11.36q-347.4.07-694.8.15-586.89,0-1173.8-.06H4.69c23.6,1.76,47.2,1.77,70.8,1.76l598.2,0,634.18,0,614.3,0V941.8q-66.21.08-132.42.13-163.65.06-327.28.06-173.58,0-347.16-.06-172.15,0-344.31.1-166.48,0-333-.06l-328.23,0H5c7.1,1.58,14.22,1.58,21.35,1.58q197.25,0,394.49,0,199.16,0,398.29,0,205.77,0,411.53,0,217.11,0,434.23,0,128.65,0,257.32.2v11.36c-2.2.08-4.4.22-6.6.22q-215.76,0-431.53.06H1040.21q-232.8,0-465.59,0H5.08c2.15,1.34,4.31,1.34,6.46,1.34l411.66.08H851.88q214.82,0,429.63-.05,216.72,0,433.42,0,103.62,0,207.24.25v24.61c-1.88.12-3.76.34-5.64.34q-396.08,0-792.16,0H6v1.21H10.7q206.3,0,412.58,0H851.94q214.81,0,429.61-.05,225.21,0,450.43,0,95.1,0,190.19.29v66.27q-70,.15-140,.28-140.46.09-280.91,0l-276.18,0-280.92,0L668,1050H5.15c18.56,1.3,37.11,1.3,55.66,1.3l294.15,0q140,0,280,0l276.18,0h557.09q140,0,280,0,87,0,174,.28V1063c-1,0-1.89.09-2.83.09l-936.18,0H4.6v1.7h8.3l560.38.06h736.44q306.22,0,612.45.07v17H.46V1H1922.17V46.18q-95,.15-190.08.3-131.46.06-262.93,0-130,0-260.09,0-140,0-280-.05-130.05,0-260.09.08-140,0-280-.07-139.5,0-279,0H5.64c9.11,1.23,18.22,1.23,27.34,1.23q182.1,0,364.22,0,172.19,0,344.35,0,174.54,0,349.09,0l344.35,0q174.08,0,348.14,0c46.35,0,92.69.25,139,.38V59.43c-2.51.13-5,.38-7.52.38q-97,.07-194,.09H1079.27q-155.14,0-310.3,0H5.6v1H218.35l315,0q154.68,0,309.36,0,157.53,0,315,0l311.25,0q156.59,0,313.15,0c46.66,0,93.32.27,140,.42V85.94c-2.52,0-5,.14-7.56.14H4.86a6,6,0,0,0,4.57,1.64q219.09,0,438.2,0H962.48q257.91,0,515.81,0,221.94,0,443.88.09v66.28q-66.21.07-132.42.15-163.63.06-327.29.06-173.58,0-347.16-.06-172.17,0-344.32.1-166.48,0-333-.06-172.15,0-344.32,0H4.93c18.5,1.54,37,1.54,55.52,1.54l394.48,0h810.72q199.14,0,398.27,0,129.12,0,258.25.18v11.36q-74.28.09-148.57.18-282,0-564,.05-275.4,0-550.81,0-283,0-565.95,0H4.94C7.09,169,9.24,169,11.39,169l89,0,533.78,0H1148q249.84,0,499.7,0,137.22,0,274.45.2v24.62c-57.72.15-115.44.43-173.16.44q-401.79.08-803.59,0H5.92c23.63,1.08,47.26,1.09,70.89,1.08l411.66,0q207.72,0,415.45,0l411.66,0q225.23,0,450.47,0c52,0,104.08.24,156.12.37v68.17q-112.07.17-224.11.33-140.44.09-280.9,0-130,0-260.08,0-131.46,0-262.93,0L635,264.3l-263.87,0-261,0H5.26c57.33,1.27,114.66,1.27,172,1.26l261,0,280.9,0,260.08,0q131.46,0,262.93,0l259.14,0q131.93,0,263.87.05,78.48.06,157,.32v11.36H4.89v1.9H1922.17v66.27c-35,.09-70,.25-105,.26q-148.51,0-297-.05-139.05,0-278.1,0l-296.1,0q-138.57,0-277.15.06-140,0-280-.05H5.41c.6,1,1.19,1.32,1.79,1.33q178.35,0,356.69,0h1037q174.09,0,348.19,0,86.55,0,173.12.31V358.6c-10.71.13-21.42.37-32.13.37q-172.21,0-344.41,0H1181.36q-180.25,0-360.49,0-173.62,0-347.25-.05-172.68,0-345.35,0H3.44c2.53.76,3.12,1.1,3.71,1.1q161.32,0,322.65.06,172.2,0,344.4,0,182.13,0,364.28,0,180.7,0,361.43-.05,182.61,0,365.22.05,78.52,0,157,.36v24.61c-1.26.07-2.51.21-3.76.21q-472.29,0-944.57.05H11.28c-2.09,0-4.17.21-6.26.32,31.83,1.14,63.64,1.13,95.44,1.14l499.67,0h479.8q258.35,0,516.7,0Q1759.4,386.88,1922.17,387ZM868.75,793.43l-.37-.35H6.64v.35ZM464,848.39l-.24-.45H6.35v.45ZM879.46,793l.42.36H1240V793Zm404.87,54.74.07.47h361v-.47Zm-44.24.62.23-.49H879.22v.49Zm-749.28-.59.37.41H851.85v-.41ZM119.19,861.06v.53H447.5v-.53Zm389.06,0-.31.59h327.7v-.59Zm793-.08-.38.58h311V861Zm-388.65.09v.51h311.19v-.51Zm793.84-325.7v.32h141.27v-.32Zm-388.29,0v.38h124.48v-.38Zm-219.12.09v.4h124.42v-.4Zm-61.27.37c0-.11,0-.22,0-.33H913.47v.33Zm-219.69.08-.4-.51H693.45v.51Zm-293.29-.56v.42H649.34v-.42Zm-95.29.66.44-.51H305.7V536Zm1074.36-.61v.32h107.2v-.32Zm-1259.47.43v-.33H137.14v.33ZM1797.35,74l-.47-.53h-73.64c0,.17,0,.35,0,.53Zm-995.88-.07v-.39H744.58v.39ZM1004,74l-.42-.54H946.85V74Zm-405,0v-.44h-57.1v.44Zm533.78-.51c-.07.18-.15.36-.23.54h57.11v-.54Zm259,.48.33-.54H1335v.54Zm405.15,475.22v-.42h-56.38v.42Zm-664.22-.41V549h56.26v-.36Zm-185,.05-.34.42h56.28v-.42Zm-551.72.39v-.35h-56.3v.35ZM339.45,73.4l-.32.54h57.08V73.4Zm-186.06,0v.39h56.87v-.39Zm1588.12-68v.22h54.57V5.35Zm-1384.24,0,.19.17h36.43V5.36ZM1577.48,73.9c0-.18,0-.36,0-.54h-40.09v.54Zm0,475.22c0-.09,0-.17,0-.26h-38.39v.26Zm-186.17.08.44-.38h-38.85c0,.12,0,.25,0,.38Zm-607.39-.05-.4-.42H744.64v.42Zm-185.41,0v-.38H559.26v.38Zm-405.28,0v-.27H154.27v.27ZM356.9,238l0,.4h38.41V238Zm202.56,0,.11.39h38.32V238Zm185.24.08v.4h39.2v-.4Zm241.85.41v-.42h-39.3v.42Zm202.41,0v-.34H1150v.34Zm551.77-.35v.36h39.08v-.36Zm-163.53.37v-.38h-39.07v.38Zm-186.08.06.4-.41h-38.83v.41Z"/><path d="M1922.17,686.18q-120.66-.12-241.31-.21-215.76-.06-431.53,0H786.57l-467.49,0-306.61,0H3.75l-.17-2.45c2.56-.23,5.12-.67,7.67-.67q345.95-.06,691.88,0l799.77,0,409.83,0c3.15,0,6.29-.18,9.44-.27Z"/><path d="M1922.17,265.82q-78.5-.17-157-.32-131.94-.09-263.87-.05l-259.14,0q-131.46,0-262.93,0l-260.08,0-280.9,0-261,0c-57.33,0-114.66,0-172-1.26H110.12l261,0,263.87,0,259.14,0q131.46,0,262.93,0,130.05,0,260.08,0,140.44,0,280.9,0,112.05-.08,224.11-.33Z"/><ellipse cx="963.53" cy="278.13" rx="1355.72" ry="1.34"/><path d="M1922.17,347.24q-86.57-.17-173.12-.31-174.1-.06-348.19,0h-1037q-178.35,0-356.69,0c-.6,0-1.19-.31-1.79-1.33H388.79q140,0,280,.05,138.57,0,277.15-.06l296.1,0q139,0,278.1,0,148.53,0,297,.05c35,0,70-.17,105-.26Z"/><path d="M1922.17,360.5q-78.53-.19-157-.36-182.61-.09-365.22-.05-180.72,0-361.43.05-182.15,0-364.28,0-172.2,0-344.4,0-161.33,0-322.65-.06c-.59,0-1.18-.34-3.71-1.1H128.27q172.68,0,345.35,0,173.63,0,347.25.05,180.24,0,360.49,0h364.27q172.2,0,344.41,0c10.71,0,21.42-.24,32.13-.37Z"/><path d="M1922.17,387q-162.76-.09-325.54-.16-258.35,0-516.7,0H600.13l-499.67,0c-31.8,0-63.61,0-95.44-1.14,2.09-.11,4.17-.32,6.26-.32H973.84q472.28,0,944.57-.05c1.25,0,2.5-.14,3.76-.21Z"/><path d="M1922.17,455.17q-112.1-.1-224.17-.22-166-.06-332-.05l-342.41,0-333,0q-171.69,0-343.36,0-169.8,0-339.59,0A3.36,3.36,0,0,1,5,453.49H93.73l361.34,0q174.52,0,349.05,0l327.28,0q165.54,0,331.08.05,163.63,0,327.28-.06,66.2,0,132.41-.2Z"/><path d="M1922.17,468.43q-171.32-.09-342.62-.15-291.51,0-583,0H9.37a6.21,6.21,0,0,1-4.54-1.59H777.91q325.59,0,651.17,0,246.54,0,493.09-.17Z"/><path d="M1922.17,494.93c-46.67-.15-93.33-.42-140-.44q-199.17-.09-398.35,0H988.31l-398.35,0-394.57,0c-63,0-126.11,0-189.17-.88H1546.53q184.07,0,368.14-.05c2.5,0,5-.34,7.5-.52Z"/><path d="M1922.17,563.1q-70-.2-139.93-.37-122.94-.08-245.89,0h-244q-123.42,0-246.83-.06-121,0-242.09,0l-245.9,0-244,0-245.88,0c-20.77,0-41.53,0-62.3-1.17H617.13q121.53,0,243,0,123.89,0,247.78,0,121.51,0,243-.08,122.48,0,245,0,122,0,244,0c27.41,0,54.82-.23,82.24-.35Z"/><path d="M1922.17,576.36H4.93l-.08-1.8h7.43q607.61,0,1215.22,0,347.34,0,694.67-.1Z"/><path d="M1922.17,644.52q-103.61-.12-207.21-.24-182.14-.06-364.3,0H279.55q-136.26,0-272.51-.06c-.59,0-1.18-.32-1.78-1.43H75.45q191.1,0,382.21,0,182.13,0,364.24.11,172.19,0,344.37-.1,165.09,0,330.18.08,164.15,0,328.29-.1,48.71,0,97.43-.15Z"/><path d="M1922.17,657.78q-95.1-.16-190.18-.31-208.17-.08-416.35,0-197.3,0-394.58,0l-415.41,0q-197.29,0-394.58,0c-35.28,0-70.56,0-105.83-1.28H1249.42q190.2,0,380.4,0,146.17-.06,292.35-.3Z"/><path d="M1922.17,754.34q-95.06-.14-190.11-.26-157-.06-314,0L1107.79,754l-315.92,0q-162.69,0-325.38,0-149.92,0-299.85-.08-78,0-156.07.08c-1.84,0-3.69,0-5.51-1.36H1029.28l313.09,0,328.21,0q123,0,245.94,0c1.88,0,3.76-.15,5.65-.23Z"/><path d="M1922.17,767.6q-230-.06-460-.12l-738.29,0-711.79,0H4.72V765.8H1373.2q274.48,0,549-.1Z"/><path d="M1922.17,835.76c-41-.15-82-.41-122.93-.43q-165.54-.09-331.07,0l-311.21,0H827.78q-172.15,0-344.31,0-167,0-333.92-.1c-47.89,0-95.78,0-143.68-1H110.35q121.5,0,243,0,122.94,0,245.87-.06,130.5,0,261,0,132.39,0,264.78.07,130,0,260-.1,139.48,0,279,0,129.06-.08,258.13-.34Z"/><path d="M1922.17,875.53l-614.3,0-634.18,0-598.2,0c-23.6,0-47.2,0-70.8-1.76H53.57q586.91,0,1173.8.06,347.4,0,694.8-.15Z"/><path d="M1922.17,943.69q-128.65-.11-257.32-.2-217.11-.06-434.23,0-205.77,0-411.53,0-199.14,0-398.29,0-197.25,0-394.49,0c-7.13,0-14.25,0-21.35-1.58H109.8L438,942q166.49,0,333,.06,172.15,0,344.31-.1,173.58,0,347.16.06,163.64,0,327.28-.06,66.21,0,132.42-.13Z"/><path d="M1922.17,957q-103.62-.13-207.24-.25-216.71-.08-433.42,0-214.82,0-429.63.05H423.2l-411.66-.08c-2.15,0-4.31,0-6.46-1.34H574.62q232.8,0,465.59,0H1484q215.76,0,431.53-.06c2.2,0,4.4-.14,6.6-.22Z"/><path d="M1922.17,983.46q-95.1-.15-190.19-.29-225.21-.07-450.43,0-214.8,0-429.61.05H423.28q-206.29,0-412.58,0H6v-1.21H1124.37q396.09,0,792.16,0c1.88,0,3.76-.22,5.64-.34Z"/><path d="M1922.17,1051.62q-87-.15-174-.28-140-.08-280,0H911.1l-276.18,0q-140,0-280,0l-294.15,0c-18.55,0-37.1,0-55.66-1.3H668l276.17,0,280.92,0,276.18,0q140.45,0,280.91,0,70,0,140-.28Z"/><path d="M1922.17,1064.88q-306.23,0-612.45-.07H573.28l-560.38-.06H4.6V1063H983.16l936.18,0c.94,0,1.88-.06,2.83-.09Z"/><path d="M1922.17,48.07c-46.35-.13-92.69-.37-139-.38q-174.06-.07-348.14,0l-344.35,0q-174.54,0-349.09,0-172.17,0-344.35,0-182.11,0-364.22,0c-9.12,0-18.23,0-27.34-1.23H110.05q139.5,0,279,0,140,0,280,.07,130.05,0,260.09-.08,140,0,280,.05,130,0,260.09,0,131.46,0,262.93,0,95,0,190.08-.3Z"/><path d="M1922.17,61.33c-46.66-.15-93.32-.4-140-.42q-156.57-.09-313.15,0l-311.25,0q-157.51,0-315,0-154.68,0-309.36,0l-315,0H5.6v-1H769q155.16,0,310.3,0H1720.7q97,0,194-.09c2.51,0,5-.25,7.52-.38Z"/><path d="M1922.17,87.83q-221.94,0-443.88-.09-257.89,0-515.81,0H447.63q-219.1,0-438.2,0a6,6,0,0,1-4.57-1.64H1914.61c2.52,0,5-.09,7.56-.14Z"/><path d="M1922.17,195.76c-52-.13-104.08-.35-156.12-.37q-225.24-.07-450.47,0l-411.66,0q-207.73,0-415.45,0l-411.66,0c-23.63,0-47.26,0-70.89-1.08h939.5q401.8,0,803.59,0c57.72,0,115.44-.29,173.16-.44Z"/><path d="M1922.17,169.25q-137.24-.1-274.45-.2-249.85,0-499.7,0H634.12l-533.78,0-88.95,0c-2.15,0-4.3,0-6.45-1.45H92.79q283,0,566,0,275.4,0,550.81,0,282,0,564.05-.05,74.28,0,148.57-.18Z"/><path d="M1922.17,156q-129.14-.09-258.25-.18-199.14,0-398.27,0H454.93l-394.48,0c-18.51,0-37,0-55.52-1.54H93.68q172.17,0,344.32,0,166.49,0,333,.06,172.15,0,344.32-.1,173.58,0,347.16.06,163.65,0,327.29-.06,66.21,0,132.42-.15Z"/><path d="M1922.17,794.11c-35.31-.2-70.62-.55-105.93-.57q-199.2-.09-398.4,0c-55.81,0-111.63,0-167.45-.66h192.94q235.2,0,470.39,0c2.81,0,5.63-.4,8.45-.62Z"/><path d="M1922.17,849c-35.3-.18-70.59-.46-105.89-.51-53.59-.09-107.18,0-160.77-.88,30.88,0,61.77,0,92.66,0q87-.2,174-.5Z"/><path d="M1922.17,862.27q-61.43-.21-122.85-.42c-36.84-.07-73.68,0-110.52-1q55.26,0,110.52,0,61.42-.12,122.85-.42Z"/><path d="M868.75,793.43H6.64v-.35H868.38Z"/><path d="M464,848.39H6.35v-.45H463.74Z"/><path d="M879.46,793H1240v.36H879.88Z"/><path d="M1284.33,847.74h361v.47h-361Z"/><path d="M1240.09,848.36H879.22v-.49h361.1Z"/><path d="M490.81,847.77h361v.41H491.18Z"/><ellipse cx="283.35" cy="861.33" rx="232.15" ry="0.38"/><path d="M508.25,861.06H835.64v.59H507.94Z"/><path d="M1301.25,861h310.61v.58h-311Z"/><ellipse cx="1068.19" cy="861.33" rx="220.05" ry="0.36"/><ellipse cx="1777.07" cy="535.53" rx="99.89" ry="0.23"/><ellipse cx="1380.39" cy="535.53" rx="88.03" ry="0.27"/><ellipse cx="1161.24" cy="535.63" rx="87.98" ry="0.28"/><ellipse cx="975.61" cy="535.63" rx="87.88" ry="0.24"/><path d="M818.07,535.88H693.45v-.51H817.67Z"/><ellipse cx="587.06" cy="535.53" rx="88.07" ry="0.3"/><path d="M429.49,536H305.7v-.51H429.93Z"/><ellipse cx="1557.45" cy="535.53" rx="75.8" ry="0.23"/><ellipse cx="190.76" cy="535.63" rx="75.83" ry="0.24"/><path d="M1797.35,74h-74.1c0-.18,0-.36,0-.53h73.64Z"/><ellipse cx="773.02" cy="73.68" rx="40.23" ry="0.28"/><path d="M1004,74h-57.1v-.54h56.69Z"/><ellipse cx="570.42" cy="73.68" rx="40.38" ry="0.31"/><path d="M1132.76,73.39h56.88v.54h-57.11C1132.61,73.75,1132.69,73.57,1132.76,73.39Z"/><path d="M1391.74,73.87H1335v-.54h57.08Z"/><ellipse cx="1768.7" cy="548.88" rx="39.87" ry="0.29"/><ellipse cx="1160.8" cy="548.86" rx="39.78" ry="0.26"/><path d="M947.66,548.73h55.94v.42H947.32Z"/><ellipse cx="367.79" cy="548.94" rx="39.81" ry="0.25"/><path d="M339.45,73.4h56.76v.54H339.13Z"/><ellipse cx="181.82" cy="73.59" rx="40.21" ry="0.27"/><path d="M1741.51,5.35h54.57v.22h-54.57Z"/><path d="M357.27,5.36h36.62v.17H357.46Z"/><path d="M1577.48,73.9h-40v-.54h40.09C1577.51,73.54,1577.5,73.72,1577.48,73.9Z"/><path d="M1577.47,549.12h-38.4v-.26h38.39C1577.46,549,1577.47,549,1577.47,549.12Z"/><path d="M1391.3,549.2h-38.4c0-.13,0-.26,0-.38h38.85Z"/><path d="M783.91,549.15H744.64v-.42h38.87Z"/><ellipse cx="578.88" cy="548.94" rx="27.75" ry="0.27"/><ellipse cx="173.75" cy="548.94" rx="27.54" ry="0.19"/><path d="M356.9,238h38.43v.4H356.92Z"/><path d="M559.46,238h38.43v.39H559.57Z"/><ellipse cx="764.3" cy="238.3" rx="27.71" ry="0.28"/><ellipse cx="966.9" cy="238.3" rx="27.78" ry="0.29"/><ellipse cx="1169.5" cy="238.3" rx="27.52" ry="0.24"/><ellipse cx="1760.27" cy="238.3" rx="27.63" ry="0.26"/><ellipse cx="1557.67" cy="238.3" rx="27.63" ry="0.26"/><path d="M1391.12,238.55h-38.43v-.41h38.83Z"/></g></svg>