<?xml version="1.0" encoding="utf-8"?>
<!-- Generator: Adobe Illustrator 22.0.1, SVG Export Plug-In . SVG Version: 6.00 Build 0)  -->
<svg version="1.1" id="Layer_1" xmlns="http://www.w3.org/2000/svg" xmlns:xlink="http://www.w3.org/1999/xlink" x="0px" y="0px"
	 viewBox="0 0 20 20" style="enable-background:new 0 0 20 20;" xml:space="preserve">
<style type="text/css">
	.st0{fill:#1BEE73;}
</style>
<title>icon_green</title>
<path class="st0" d="M11.4,7.4v0.2c0,2.5,0,4.9,0,7.4c0,0.5-0.3,0.9-0.9,1.1C10,16.3,9.4,16.3,9,15.9c-0.2-0.2-0.3-0.5-0.3-0.8
	c0-2.4,0-4.9,0-7.4V7.4L6.9,8.7C6.7,8.9,6.6,9.1,6.3,9.2c-0.6,0.4-1.4,0.3-2-0.2C4.2,8.9,4.1,8.7,4,8.5C3.9,8.2,4.1,7.8,4.5,7.6
	l3.2-2.5l1.4-1c0.6-0.4,1.4-0.4,1.9,0l4.5,3.5c0.6,0.4,0.6,1,0.2,1.5l0,0c-0.5,0.5-1.4,0.5-2,0.2c-0.4-0.3-0.8-0.6-1.2-0.9L11.4,7.4
	z"/>
</svg>
