<svg id="Capa_1" data-name="Capa 1" xmlns="http://www.w3.org/2000/svg" viewBox="0 0 489.3 489.3"><defs><style>.cls-1{fill:#fff;}</style></defs><title>icon_speech_bubble</title><path class="cls-1" d="M265,369.25a12.3,12.3,0,0,0,0-24.6H38.4a13.87,13.87,0,0,1-13.9-13.9V77.35a13.87,13.87,0,0,1,13.9-13.9H451a13.87,13.87,0,0,1,13.9,13.9V331a13.87,13.87,0,0,1-13.9,13.9H420.8a12.29,12.29,0,0,0-12.3,12.3v60.9L339,348.55a12.23,12.23,0,0,0-17.3,17.3l78.9,78.9a19.11,19.11,0,0,0,13.4,5.6,21,21,0,0,0,7.3-1.4,18.84,18.84,0,0,0,11.7-17.5v-61.9h17.9a38.41,38.41,0,0,0,38.4-38.4V77.35A38.41,38.41,0,0,0,450.9,39H38.4A38.41,38.41,0,0,0,0,77.35V331a38.41,38.41,0,0,0,38.4,38.4H265Z"/><path class="cls-1" d="M88.1,152.85H401.3a12.3,12.3,0,1,0,0-24.6H88.1a12.3,12.3,0,1,0,0,24.6Z"/><path class="cls-1" d="M88.1,218.75H401.3a12.3,12.3,0,1,0,0-24.6H88.1a12.3,12.3,0,1,0,0,24.6Z"/><path class="cls-1" d="M244.7,284.65H401.3a12.3,12.3,0,1,0,0-24.6H244.7a12.3,12.3,0,0,0,0,24.6Z"/></svg>