<svg xmlns="http://www.w3.org/2000/svg" viewBox="0 0 100 100"><defs><style>.cls-1{fill:#fff;}</style></defs><title>info_foreign</title><g id="globe2"><path class="cls-1" d="M41.66,51.67c1.48,0,3,0,4.44,0,1.64-.06,2.48.55,2.45,2.3-.06,2.81,0,5.62,0,8.43,0,1.56-.65,2.29-2.24,2.27-2.57,0-5.15.11-7.71-.09A2.91,2.91,0,0,1,36.41,63a83,83,0,0,1-1.55-9.68c-.06-.49,1-1.51,1.66-1.59a38.24,38.24,0,0,1,5.14-.08Z"/><path class="cls-1" d="M41.65,48.66c-1.72,0-3.43,0-5.15,0-1.27,0-1.9-.65-1.71-1.92q.66-4.52,1.4-9a2.29,2.29,0,0,1,2.63-2.07c2.49.05,5,0,7.49,0,1.4,0,2.23.53,2.22,2,0,3,0,5.93,0,8.9,0,1.51-.78,2.07-2.2,2s-3.12,0-4.68,0Z"/><path class="cls-1" d="M51.51,58.09c0-1.4,0-2.8,0-4.21s.52-2.21,2-2.2q4.44,0,8.88,0c1.49,0,2.22.74,2,2.17C64,56.93,63.55,60,62.86,63a2.63,2.63,0,0,1-2,1.51c-2.48.19-5,.08-7.47.08-1.41,0-1.92-.81-1.91-2.1C51.52,61.05,51.51,59.57,51.51,58.09Z"/><path class="cls-1" d="M57.87,48.67c-7.25-.06-6.3.89-6.37-6.3,0-1.56,0-3.12,0-4.68a1.77,1.77,0,0,1,2-2c2.41,0,4.84-.13,7.24.08a2.94,2.94,0,0,1,2.12,1.65c.69,2.95,1.11,6,1.55,9,.23,1.55-.53,2.34-2.14,2.3S59.35,48.67,57.87,48.67Z"/><path class="cls-1" d="M66.13,35.79c3.25,0,6.4-.08,9.54.07.57,0,1.39.85,1.6,1.47,1,2.93,1.88,5.9,2.63,8.9.4,1.61-.42,2.48-2.16,2.46-2.64,0-5.29.08-7.93-.08-.76,0-2-.69-2.13-1.23C67,43.66,66.64,39.89,66.13,35.79Z"/><path class="cls-1" d="M71.22,64.64c-5.22,0-5.19,0-4.4-5a45.21,45.21,0,0,0,.6-5.56c.07-1.64.66-2.45,2.38-2.41,2.64.06,5.29.05,7.93,0,1.75,0,2.57.84,2.17,2.45A82.21,82.21,0,0,1,77.22,63c-.28.75-1.58,1.33-2.52,1.56A15,15,0,0,1,71.22,64.64Z"/><path class="cls-1" d="M25.81,51.67c6.94,0,5.36-.62,6.32,5.57.29,1.84.59,3.68,1,5.5.27,1.33-.19,1.92-1.53,1.91s-2.8,0-4.2,0c-4.12,0-4.35-.06-5.67-4a59.12,59.12,0,0,1-1.63-7c-.29-1.37.33-2,1.77-2S24.49,51.67,25.81,51.67Z"/><path class="cls-1" d="M25.85,48.69h-.7c-5.54,0-5.79-.31-4.49-5.64,1.77-7.32,3.55-8.53,11.1-7.29a2.09,2.09,0,0,1,1.3,1.57c-.35,3.24-.82,6.48-1.46,9.67a2.66,2.66,0,0,1-1.8,1.58,20,20,0,0,1-3.95.08Z"/><path class="cls-1" d="M48.54,73.92a23.89,23.89,0,0,1,0,3.49c-.14.89-.52,2.34-1,2.46-1,.23-2.75.06-3.18-.6C42.12,76,40.26,72.5,38.4,69c-.11-.21.63-1.28,1-1.3a65.58,65.58,0,0,1,7.68,0c.51,0,1.28,1.07,1.37,1.72a31,31,0,0,1,.07,4.42Z"/><path class="cls-1" d="M48.54,26.15c-.07,6.93.85,6.22-6.22,6.26-4.7,0-4.82-.13-2.62-4.39a62.64,62.64,0,0,1,3.77-6.16,4.07,4.07,0,0,1,2-1.5c2.44-.77,3.09-.24,3.12,2.29C48.55,23.82,48.54,25,48.54,26.15Z"/><path class="cls-1" d="M51.5,73.86c.08-7-.88-6.16,6.2-6.23.62,0,1.24,0,1.87,0,1.24.06,1.78.76,1.2,1.85C59.05,72.74,57.33,76,55.36,79c-.43.66-1.9.94-2.84.85-.41,0-.86-1.45-1-2.27A27.3,27.3,0,0,1,51.5,73.86Z"/><path class="cls-1" d="M56.23,32.37c-4.73,0-4.73,0-4.73-4.67,0-1.79-.06-3.58,0-5.36,0-.7.34-1.89.7-2,.82-.17,2.24-.1,2.57.42,2.15,3.3,4.09,6.73,6,10.18.1.18-.77,1.21-1.3,1.32A16,16,0,0,1,56.23,32.37Z"/><path class="cls-1" d="M74,68.42c-3.48,4.8-8.14,8-14.2,10.33C61.52,75,63,71.81,64.55,68.64a1.79,1.79,0,0,1,1.27-.88c2.62-.08,5.25,0,7.88,0Z"/><path class="cls-1" d="M74.27,32.28c-3.3,0-5.91.06-8.52-.05a2,2,0,0,1-1.39-1.07c-1.5-3-2.9-6-4.57-9.52A29.17,29.17,0,0,1,74.27,32.28Z"/><path class="cls-1" d="M26.33,67.73c2.39,0,4.78-.07,7.16.07.52,0,1.17.75,1.45,1.31,1.45,2.93,2.8,5.9,4.38,9.27-5.56-2.2-10-5.3-13.24-9.94Z"/><path class="cls-1" d="M39.38,21.86c-1.6,3.37-2.88,6.21-4.3,9a2.64,2.64,0,0,1-1.66,1.4c-2.3.16-4.62.06-7.61.06C29.38,27.11,33.87,24.23,39.38,21.86Z"/></g></svg>