<svg xmlns="http://www.w3.org/2000/svg" viewBox="0 0 100 100"><defs><style>.cls-1{fill:#fff;}</style></defs><title>info_news</title><g id="news2"><path class="cls-1" d="M67.48,20.17c1,3.54,1.91,6.92,2.81,10.32Q73.65,43.2,77,55.9c1,3.9.9,4-3.26,4-4.76,0-9.51.06-14.26,0-2.09,0-3.16.58-3.58,2.85A10,10,0,0,1,46.28,71a10.3,10.3,0,0,1-10.37-7.36C34,56.87,32.21,50,30.55,43.13a3.36,3.36,0,0,1,1.13-2.91c11.43-6.66,23-13.18,34.45-19.73A7.44,7.44,0,0,1,67.48,20.17ZM45.77,60v0H41.6c-1.94,0-2.49.93-1.83,2.67A6.3,6.3,0,0,0,45.31,67a6.42,6.42,0,0,0,6.27-3.76c1-2.18.41-3.13-1.93-3.27C48.36,59.9,47.06,60,45.77,60Z"/><path class="cls-1" d="M25.4,62.19c-3,.16-4.54-.84-5.14-3-.87-3.24-1.82-6.46-2.53-9.73-.75-3.44.32-5,3.71-6,5.52-1.65,5.52-1.65,7,4,.9,3.42,1.72,6.86,2.74,10.25.64,2.17.16,3.39-2.18,3.74C27.53,61.66,26.09,62,25.4,62.19Z"/></g></svg>