<svg xmlns="http://www.w3.org/2000/svg" viewBox="0 0 100 100"><defs><style>.cls-1{fill:#fff;}</style></defs><title>info_intelligence</title><g id="lock2"><path class="cls-1" d="M50,78.76c-6.76,0-13.52,0-20.28,0a7.65,7.65,0,0,1-2.48-.37,3,3,0,0,1-2.25-3q0-16.17,0-32.33a3,3,0,0,1,2.6-3,17.75,17.75,0,0,1,3.65-.29c1,0,1.42-.3,1.41-1.31-.05-3.43,0-6.87,0-10.3,0-4.29,2.74-6.89,7.32-6.9q10.31,0,20.63,0c3.31,0,6,2,6.66,4.7a6.81,6.81,0,0,1,.14,1.5c0,3.4,0,6.8,0,10.2,0,2.08,0,2.06,2.16,2.09a13.51,13.51,0,0,1,2.29.18C74,40.33,75,41.48,75,43.57V74.49c0,3-1.38,4.26-4.59,4.27H50Zm0-39c3.34,0,6.67,0,10,0,.87,0,1.25-.26,1.24-1.12q0-5.14,0-10.29c0-1-.42-1.27-1.38-1.27q-9.78,0-19.56,0c-1,0-1.43.38-1.42,1.35q0,5,0,10.07c0,.93.31,1.28,1.33,1.27C43.44,39.72,46.7,39.75,50,39.75ZM48.71,71c0,.87,0,1.73,0,2.6,0,.71.23,1.07,1,1.08s1.12-.37,1.11-1.13c0-1.66,0-3.32,0-5a1.24,1.24,0,0,1,1-1.42,5.65,5.65,0,0,0,4-6.13,6,6,0,0,0-5.43-5,6.16,6.16,0,0,0-6.52,4,5.19,5.19,0,0,0,2.69,6.59c2.09.85,2.29,2.07,2.11,3.76C48.69,70.53,48.71,70.74,48.71,71Z"/></g></svg>