<svg xmlns="http://www.w3.org/2000/svg" viewBox="0 0 100 100"><defs><style>.cls-1{fill:#fff;}</style></defs><title>info_security_1</title><g id="shield2"><path class="cls-1" d="M22.56,30.52c0-.26,0-.52,0-.77,0-.59,0-.6.53-.75,1.14-.3,2.29-.58,3.42-.89a80.29,80.29,0,0,0,14.33-5.74c2.06-1,4.12-2.06,6.21-3a7.2,7.2,0,0,1,6.29.11c2.91,1.38,5.79,2.83,8.69,4.22a70.81,70.81,0,0,0,14.67,5.22c1,.23.87.15.82,1.11-.09,1.56-.12,3.12-.26,4.68-.16,1.74-.37,3.47-.63,5.2A63.35,63.35,0,0,1,73.81,51,58.61,58.61,0,0,1,59.23,74.1a56.27,56.27,0,0,1-9,7.1.47.47,0,0,1-.54,0A50.07,50.07,0,0,1,35.39,68.6a58.84,58.84,0,0,1-11.15-24,68.49,68.49,0,0,1-1.3-8.07c-.21-2-.29-4-.43-6Z"/></g></svg>