<svg xmlns="http://www.w3.org/2000/svg" viewBox="0 0 100 100"><defs><style>.cls-1{fill:#fff;}.cls-2{fill:#db4b4f;}</style></defs><title>info_intelligence_inverted</title><g id="circle1"><circle class="cls-1" cx="50" cy="50" r="49"/></g><g id="lock"><path class="cls-2" d="M50.11,78.76c-6.76,0-13.53,0-20.29,0a7.69,7.69,0,0,1-2.48-.37,3,3,0,0,1-2.25-3q0-16.17,0-32.33a3,3,0,0,1,2.59-3,17.91,17.91,0,0,1,3.66-.29c1,0,1.42-.3,1.41-1.31-.05-3.43,0-6.87,0-10.3,0-4.29,2.73-6.89,7.31-6.9q10.32,0,20.63,0c3.31,0,6,2,6.66,4.7a6.26,6.26,0,0,1,.14,1.5q0,5.1,0,10.2c0,2.08,0,2.06,2.15,2.09a13.35,13.35,0,0,1,2.29.18c2.17.39,3.15,1.54,3.15,3.63q0,15.47,0,30.92c0,3-1.37,4.26-4.58,4.27H50.11Zm-.06-39c3.34,0,6.68,0,10,0,.87,0,1.24-.26,1.24-1.12,0-3.43,0-6.86,0-10.29,0-1-.42-1.27-1.38-1.27q-9.78,0-19.57,0c-1,0-1.43.38-1.42,1.35q.06,5,0,10.07c0,.93.32,1.28,1.33,1.27C43.53,39.72,46.79,39.75,50.05,39.75ZM48.8,71c0,.87,0,1.73,0,2.6,0,.71.22,1.07,1,1.08s1.12-.37,1.1-1.13c0-1.66,0-3.32,0-5a1.25,1.25,0,0,1,1-1.42A5.65,5.65,0,0,0,56,61a6.05,6.05,0,0,0-5.44-5A6.15,6.15,0,0,0,44,60a5.18,5.18,0,0,0,2.68,6.59c2.09.85,2.3,2.07,2.11,3.76C48.78,70.53,48.8,70.74,48.8,71Z"/></g></svg>