<svg xmlns="http://www.w3.org/2000/svg" viewBox="0 0 100 100"><defs><style>.cls-1{fill:#fff;}.cls-2{fill:#db4b4f;}</style></defs><title>info_foreign_inverted</title><g id="circle3"><circle class="cls-1" cx="50" cy="50" r="49"/></g><g id="globe"><path class="cls-2" d="M41.6,52.28c1.48,0,3,0,4.44,0,1.63-.06,2.48.55,2.45,2.3-.06,2.81-.05,5.62,0,8.43,0,1.56-.65,2.29-2.24,2.27-2.57,0-5.15.1-7.71-.09a2.89,2.89,0,0,1-2.18-1.53A83.34,83.34,0,0,1,34.8,54c-.06-.49,1-1.51,1.66-1.59a38.24,38.24,0,0,1,5.14-.08Zm0-3c1.56,0,3.12,0,4.68,0s2.21-.54,2.2-2.06c0-3,0-5.93,0-8.89,0-1.52-.83-2.06-2.22-2.05-2.5,0-5,0-7.49,0a2.28,2.28,0,0,0-2.63,2.07q-.74,4.5-1.4,9c-.19,1.27.44,1.91,1.71,1.92h5.15Zm9.86,13.86c0,1.29.5,2.1,1.9,2.1,2.5,0,5,.11,7.48-.08a2.65,2.65,0,0,0,2-1.51c.69-3,1.14-6.11,1.59-9.19.2-1.43-.53-2.18-2-2.17q-4.44,0-8.88,0c-1.52,0-2.07.8-2.05,2.2s0,2.81,0,4.21S51.46,61.66,51.45,63.14Zm10.8-13.85c1.61,0,2.36-.75,2.14-2.3-.44-3-.86-6-1.56-9a2.9,2.9,0,0,0-2.12-1.65c-2.39-.21-4.82-.08-7.23-.08a1.77,1.77,0,0,0-2,2c0,1.56,0,3.12,0,4.68.07,7.19-.88,6.24,6.37,6.3C59.29,49.28,60.77,49.26,62.25,49.29ZM67.62,48c.09.54,1.37,1.19,2.13,1.23,2.64.16,5.29,0,7.93.07,1.74,0,2.56-.85,2.16-2.45-.75-3-1.65-6-2.63-8.9-.21-.62-1-1.45-1.6-1.47-3.14-.15-6.29-.07-9.54-.07C66.58,40.49,67,44.26,67.62,48Zm7,17.2c.94-.23,2.24-.81,2.52-1.56a82.21,82.21,0,0,0,2.68-8.9c.4-1.61-.42-2.48-2.17-2.45-2.64,0-5.29,0-7.94,0-1.72,0-2.3.77-2.37,2.4a47.41,47.41,0,0,1-.6,5.57c-.79,5-.82,5,4.4,5A15,15,0,0,0,74.64,65.19ZM21.78,52.27c-1.44-.05-2.06.61-1.77,2a59.58,59.58,0,0,0,1.63,7c1.32,3.94,1.55,4,5.67,4,1.4,0,2.8,0,4.2,0s1.8-.58,1.53-1.91c-.38-1.82-.68-3.66-1-5.51-1-6.18.62-5.51-6.32-5.56C24.43,52.28,23.1,52.32,21.78,52.27Zm4-3a20,20,0,0,0,3.95-.08,2.68,2.68,0,0,0,1.8-1.58c.64-3.2,1.11-6.43,1.45-9.67a2.06,2.06,0,0,0-1.29-1.57c-7.55-1.24-9.33,0-11.11,7.29-1.29,5.33-1,5.64,4.5,5.64h.7ZM48.46,74.53a31,31,0,0,0-.07-4.42c-.09-.65-.86-1.69-1.38-1.72a65.41,65.41,0,0,0-7.67,0c-.37,0-1.11,1.09-1,1.3,1.86,3.47,3.72,7,5.88,10.24.43.66,2.18.83,3.18.6.52-.12.9-1.57,1-2.47a23.73,23.73,0,0,0,0-3.48Zm0-51.27c0-2.53-.68-3.06-3.12-2.29a4,4,0,0,0-2,1.5,61.49,61.49,0,0,0-3.77,6.16C37.44,32.89,37.56,33,42.26,33c7.07,0,6.15.68,6.22-6.25C48.48,25.59,48.49,24.43,48.48,23.26Zm3,54.93c.11.83.56,2.23,1,2.28.93.09,2.41-.19,2.84-.85,2-3.06,3.69-6.28,5.41-9.49.58-1.09,0-1.79-1.21-1.85-.62,0-1.24,0-1.86,0-7.08.07-6.12-.81-6.2,6.23A27.13,27.13,0,0,0,51.49,78.19Zm7.93-45.28c.53-.11,1.4-1.15,1.3-1.32-1.89-3.45-3.83-6.88-6-10.18-.34-.52-1.75-.59-2.57-.43-.36.08-.66,1.27-.7,2-.1,1.79,0,3.58,0,5.37,0,4.71,0,4.71,4.73,4.66A16,16,0,0,0,59.42,32.91ZM73.64,68.33c-2.63,0-5.26,0-7.88,0a1.79,1.79,0,0,0-1.27.88c-1.55,3.17-3,6.39-4.77,10.11,6.06-2.31,10.72-5.53,14.2-10.33ZM59.73,22.25c1.67,3.51,3.07,6.54,4.57,9.52a2,2,0,0,0,1.39,1.07c2.6.11,5.22,0,8.52,0A29.11,29.11,0,0,0,59.73,22.25ZM26,69.05c3.26,4.64,7.68,7.74,13.24,9.94-1.58-3.37-2.93-6.34-4.38-9.27-.28-.56-.93-1.28-1.45-1.31-2.38-.15-4.77-.07-7.16-.07Zm-.27-36.14c3,0,5.31.1,7.61-.06A2.64,2.64,0,0,0,35,31.45c1.42-2.77,2.7-5.61,4.3-9C33.81,24.84,29.32,27.72,25.75,32.91Z"/></g></svg>