<svg xmlns="http://www.w3.org/2000/svg" viewBox="0 0 100 100"><defs><style>.cls-1{fill:#fff;}.cls-2{fill:#db4b4f;}</style></defs><title>info_news_inverted</title><g id="circle5"><circle class="cls-1" cx="50" cy="50" r="49"/></g><g id="news"><path class="cls-2" d="M32,55.88c-.35-1.35-.69-2.71-1-4.06-1.48-5.68-1.48-5.68-7-4-3.38,1-4.45,2.57-3.7,6,.71,3.27,1.66,6.49,2.53,9.73.6,2.21,2.09,3.2,5.14,3,.69-.15,2.13-.54,3.6-.76,2.34-.36,2.82-1.58,2.17-3.74S32.51,58,32,55.88"/><path class="cls-2" d="M34.82,54.7q1.71,6.7,3.59,13.37a10.3,10.3,0,0,0,10.37,7.36,10,10,0,0,0,9.59-8.27c.42-2.28,1.48-2.89,3.58-2.86,4.75.08,9.5,0,14.25,0,4.17,0,4.28-.14,3.27-4q-3.33-12.72-6.68-25.42C71.89,31.48,71,28.1,70,24.56a7.65,7.65,0,0,0-1.36.32c-11.5,6.54-23,13.07-34.44,19.73a3.33,3.33,0,0,0-1.13,2.91m1.33,5.42c.14.59.29,1.17.44,1.76m-1.77-7.18c.43,1.8.88,3.61,1.33,5.42m19.7,14.69a6.41,6.41,0,0,1-6.28,3.75A6.3,6.3,0,0,1,42.26,67c-.65-1.75-.1-2.69,1.84-2.67h4.16v0c1.3,0,2.6-.07,3.89,0C54.49,64.5,55,65.45,54.08,67.63Z"/></g></svg>