<svg xmlns="http://www.w3.org/2000/svg" viewBox="0 0 100 100"><defs><style>.cls-1{fill:#fff;}.cls-2{fill:#db4b4f;}</style></defs><title>info_domestic_inverted</title><g id="circle4"><circle class="cls-1" cx="50" cy="50" r="49"/></g><g id="domestic"><path class="cls-2" d="M51.09,55.8c.77-1.4,1.47-2.57,2.07-3.79a1.43,1.43,0,0,1,1.48-.9,33.87,33.87,0,0,1,8.1.63c3.56.89,5.24,3.08,5.31,6.74a13.7,13.7,0,0,1-1.36,6.78,11.71,11.71,0,0,1-6.89,5.79,23.25,23.25,0,0,1-17.59-.55,11.26,11.26,0,0,1-7.1-9.92,18.57,18.57,0,0,1,.16-4.08,5.18,5.18,0,0,1,4-4.55c2-.49,4.12-.5,6.17-.84a3.5,3.5,0,0,1,4.24,2.35A19.1,19.1,0,0,0,51.09,55.8ZM38.54,34A11.47,11.47,0,0,0,50.31,45.61,11.33,11.33,0,0,0,61.76,34a11.61,11.61,0,0,0-23.22,0ZM71.86,51.65c-.22-.3-.54-.7-.85-.73-1-.1-2,0-3.24,0a8,8,0,0,1,2.92,4.3A15.47,15.47,0,0,1,69.5,66c-.57,1.2-.55,1.29.77,1.49a21.1,21.1,0,0,0,7.92-.15c4.65-1,8-3.9,8.5-9,.34-3.78-.94-6.5-5-7.07a48.76,48.76,0,0,0-5.93-.3c-.33,0-.77.42-1,.75-.48.69-.84,1.46-1.37,2.41C72.8,53.11,72.36,52.36,71.86,51.65ZM34.14,67.06a19.82,19.82,0,0,1-.94-2c-1.79-4.95-2.19-9.75,1.59-14.24-.79,0-1.55.06-2.29,0a1.74,1.74,0,0,0-2,1.21,19.84,19.84,0,0,1-1.11,2c-.58-.92-1.06-1.62-1.46-2.36a1.48,1.48,0,0,0-1.56-.85c-1.46.09-2.93.09-4.39.22-2.63.23-4.4,1.63-4.94,3.81a9.76,9.76,0,0,0,5.14,11.25c3.29,1.67,6.81,1.8,10.38,1.47a14.2,14.2,0,0,0,1.5-.3C34.12,67.11,34.15,67.08,34.14,67.06Zm47-26.74a8.32,8.32,0,1,0-8.37,8.13C77,48.76,81.13,44.82,81.09,40.32ZM28.75,48.45A8.25,8.25,0,1,0,28.81,32a8.25,8.25,0,0,0-.06,16.5Z"/></g></svg>