<svg xmlns="http://www.w3.org/2000/svg" viewBox="0 0 100 100"><defs><style>.cls-1{fill:#fff;}</style></defs><title>info_domestic</title><g id="domestic2"><path class="cls-1" d="M49.35,58.34c.77-1.4,1.47-2.57,2.07-3.79a1.43,1.43,0,0,1,1.47-.9,34,34,0,0,1,8.11.63c3.56.88,5.24,3.07,5.31,6.74A13.7,13.7,0,0,1,65,67.8a11.74,11.74,0,0,1-6.89,5.79A23.24,23.24,0,0,1,40.47,73a11.29,11.29,0,0,1-7.11-9.92A19.21,19.21,0,0,1,33.53,59a5.16,5.16,0,0,1,4-4.55c2-.49,4.11-.51,6.16-.84A3.5,3.5,0,0,1,47.94,56,16.87,16.87,0,0,0,49.35,58.34Z"/><path class="cls-1" d="M48.43,25A11.43,11.43,0,0,1,60,36.52,11.33,11.33,0,0,1,48.57,48.15,11.6,11.6,0,1,1,48.43,25Z"/><path class="cls-1" d="M71.66,56.59c.53-1,.89-1.72,1.36-2.41.23-.34.66-.76,1-.75a48.76,48.76,0,0,1,5.93.3C84,54.3,85.29,57,85,60.8c-.46,5.14-3.85,8-8.5,9a21.1,21.1,0,0,1-7.92.15c-1.33-.2-1.35-.29-.77-1.49A15.48,15.48,0,0,0,69,57.72,8,8,0,0,0,66,53.42c1.27,0,2.26-.06,3.24,0,.31,0,.63.43.84.73C70.62,54.9,71.06,55.65,71.66,56.59Z"/><path class="cls-1" d="M32.33,69.83a12.1,12.1,0,0,1-1.5.29c-3.58.34-7.09.21-10.38-1.46a9.76,9.76,0,0,1-5.14-11.25c.54-2.18,2.31-3.58,4.94-3.81,1.46-.13,2.93-.13,4.39-.22a1.46,1.46,0,0,1,1.55.85c.4.74.89,1.43,1.47,2.36a19.54,19.54,0,0,0,1.1-2,1.75,1.75,0,0,1,2-1.21c.74.07,1.49,0,2.28,0-3.77,4.49-3.38,9.29-1.59,14.23.25.69.63,1.32.94,2C32.4,69.62,32.38,69.65,32.33,69.83Z"/><path class="cls-1" d="M71,51a8.25,8.25,0,1,1,8.37-8.13C79.38,47.36,75.24,51.3,71,51Z"/><path class="cls-1" d="M18.83,42.72a8.07,8.07,0,0,1,8.24-8.23A8.25,8.25,0,1,1,27,51,8,8,0,0,1,18.83,42.72Z"/></g></svg>